<svg width="454" height="389" viewBox="0 0 454 389" fill="none" xmlns="http://www.w3.org/2000/svg">
<path d="M312.5 387.1C309.8 386 304.1 384.5 300 383.6C290.2 381.6 265.6 380.5 260.4 381.9C255.9 383.1 250.8 383.2 225 383.1C204.9 382.9 200.6 382.2 196.2 378.5C192.6 375.5 191.8 375.4 189.6 377.9C186.2 381.6 172.9 383.2 165.9 380.8C156 377.4 151.2 370.7 154 363.9C155.8 359.7 161.4 354.3 165.6 353C169.6 351.6 169.8 351 170.3 337C170.6 331.2 171.3 321.8 172 316C172.7 310.2 173 301.2 172.8 296C172.3 285.4 171.9 284.6 159.8 268.9C156.7 264.8 153 259 151.7 256C147.8 247.5 140.9 242.1 124.5 234.5C120.1 232.4 115 229.5 113.2 227.9C111.4 226.3 108.3 224.2 106.2 223.1C104.2 222.1 99.7 218.6 96.3 215.3C90.8 210.1 90.1 208.9 89 203.5C87.6 196.9 83.7 185.8 81.4 182.2C80 180.1 75.9 177 64.1 169.5C58.2 165.8 49.2 157.3 48.4 154.7C47.5 151.8 45 149.2 39.9 146C33.3 141.7 25.1 131.2 23.4 124.8C20.6 114 22.1 108.9 30 102.6C36.6 97.4001 36.6 95.0001 30 84.5001C27.3 80.2001 24.7 76.4 24.2 76.1C23.8 75.8 21.7 73 19.5 70C17.4 67 13.3 61.6 10.5 58C2.69998 48.2 0.999979 44.8 0.699979 39.1C0.499979 35.2 0.999979 33.6 2.49998 32L4.49998 30L17.7 34.5C24.9 36.9 34 40.5 37.9 42.5C41.8 44.4 45.8 46 46.9 46C48 46 51.2 44 53.9 41.6C58.2 37.8 59.7 37.1 64.7 36.5C68.9 36 72.7 34.5 78.5 31.2C86.5 26.6 86.5 26.6001 97.2 26.3001C104.9 26.1001 108.9 26.5 111.4 27.5C116.5 29.7 120.7 29.4 123.1 26.7C124.2 25.5 128.2 20.6001 132 15.9001C138.9 7.20005 143.9 2.80005 148.3 1.10005C151.6 -0.19995 154.7 2.00005 157.1 7.40005C159.5 12.6 159.6 26.6 157.4 40C155.3 53.2 155.9 56.6 161.8 62.2C168.1 68.2 174.6 71.6 181.6 72.5C184.7 72.9 188 73.6 188.9 74C192.1 75.7 199.1 78 200.9 78C202 78 205.5 79.3 208.8 81.0001C212.2 82.6001 215.4 84.0001 215.9 84.0001C216.5 84.0001 218 85.0001 219.2 86.3001C222.6 89.6001 227.5 91.0001 238.4 91.5001C244.2 91.8001 248.9 92.5001 249.8 93.2001C250.6 93.9001 252.3 94.6001 253.4 94.7001C256.9 95.0001 258.7 95.5001 260.4 96.9001C261.3 97.7001 263 98.0001 264.4 97.6001C266.1 97.2001 267 97.5001 267.4 98.6001C267.9 100 269 100.2 273 99.7001C276.8 99.2001 278 99.4001 278 100.4C278 101.6 284.8 103.3 290.5 103.5C292.8 103.5 297 105.7 298.5 107.6C299.1 108.3 302.3 109.1 305.8 109.4C312.5 110 316.9 112.3 317 115.2C317 116.3 318.4 117.6 320.4 118.4C322.3 119.2 324.5 120.8 325.2 121.9C325.9 123.1 327.2 124 328.2 124C329.1 124 330 124.3 330.2 124.8C330.4 125.2 332.2 126.8 334.3 128.3C336.4 129.9 339.1 133.2 340.3 135.7C342.2 139.6 343.2 140.5 347.7 142.2C353.7 144.4 358.1 149 362.8 157.8C364.5 160.9 367.2 164.8 368.9 166.4C370.6 168.1 372 169.9 372 170.5C372 171.1 372.8 172.7 373.7 174C374.7 175.4 375.6 177.3 375.7 178.4C375.9 179.4 376.7 181.7 377.4 183.4C385 200.2 387.1 205.8 387.7 209.8C388 212.4 389.1 215.6 390.1 216.9C392.8 220.3 394.3 226.5 396 240.1C396.5 244.3 397.8 250.5 399 253.9C400.4 258.1 401.4 264.9 402.1 275.5C403.1 290.7 403.1 291.1 400.9 295.8C399 299.7 398.5 302.4 398.3 311.6L398.1 322.8L403.8 327.3C406.9 329.8 410.5 332.9 411.6 334.2C418.7 341.9 422.2 344.9 425.2 345.5C427 345.9 430.2 347.1 432.4 348.2C434.5 349.3 439.2 350.6 442.9 351.2C453.6 352.9 453 351.6 453 370.5C453 386.9 453 387 450.7 387.5C447.5 388.3 425.2 385.1 421.8 383.4C419.2 382 408.1 380.8 386.4 379.3C377.7 378.8 376.8 378.9 367.1 382.4C356.4 386.2 348 387.5 328.5 388.5C319.2 388.9 316.7 388.7 312.5 387.1Z" fill="black"/>
<path d="M312.5 387C309.8 386 304.1 384.5 300 383.6C290.1 381.6 264.2 380.5 259.8 381.9C256.1 383.1 251.3 383.2 225 383.1C204.9 382.9 200.6 382.2 196.2 378.5C192.6 375.5 191.8 375.4 189.6 377.9C186.2 381.6 172.9 383.2 165.9 380.8C156 377.4 151.2 370.7 154 363.9C155.8 359.7 161.4 354.3 165.6 353C169.6 351.6 169.8 351 170.3 337C170.6 331.2 171.3 321.8 172 316C172.7 310.2 173 301.2 172.8 296C172.3 285.4 171.9 284.6 159.8 268.9C156.7 264.8 153 259 151.7 256C147.8 247.5 140.9 242.1 124.5 234.5C120.1 232.4 115 229.5 113.2 227.9C111.4 226.3 108.3 224.2 106.2 223.1C104.2 222.1 99.7001 218.6 96.3001 215.3C90.8001 210.1 90.1001 208.9 89.0001 203.5C87.6001 196.9 83.7001 185.8 81.4001 182.2C80.0001 180.1 75.9001 177 64.1001 169.5C58.2001 165.8 49.2001 157.3 48.4001 154.7C47.5001 151.8 45.0001 149.2 39.9001 146C33.3001 141.7 25.1001 131.2 23.4001 124.8C20.6001 114 22.1001 108.9 30.0001 102.6C34.2001 99.3 35.0001 98.1 35.0001 95.3C35.0001 91.6 37.2001 90.8 39.1001 93.9C39.8001 94.9 41.1001 95.5 42.0001 95.3C43.0001 95 44.1001 95.3 44.4001 95.9C45.5001 97.6 47.2001 97.2 46.7001 95.3C46.1001 92.6 48.8001 88 50.9001 88C52.0001 88 53.0001 88.5 53.2001 89.2C53.5001 90.1 53.8001 90.1 54.4001 89.2C54.8001 88.4 54.3001 87.6 52.8001 87.1C50.3001 86.1 50.8001 85.9 57.9001 85.7C60.4001 85.6 62.5001 85 62.7001 84.3C63.0001 83.6 62.6001 83 62.0001 83C61.3001 83 61.5001 82.4 62.4001 81.4C63.3001 80.6 64.5001 80 65.2001 80.2C65.8001 80.4 67.4001 78.6 68.7001 76.1C71.4001 70.6 71.4001 70.9 69.5001 71.6C67.4001 72.5 65.2001 70.4 62.4001 64.9C61.0001 62.1 58.9001 59.6 57.3001 58.8C55.4001 57.9 54.4001 56.6 54.2001 54.7C54.0001 52.9 52.9001 51.5 51.1001 50.6C49.6001 49.8 47.8001 48.4 47.1001 47.6C46.0001 46.3 46.0001 46 47.3001 46C48.2001 46 51.2001 44 53.9001 41.6C58.2001 37.8 59.7001 37.1 64.7001 36.5C68.9001 36 72.7001 34.5 78.5001 31.2C86.5001 26.6 86.5001 26.6 97.1001 26.3C105.5 26.1 108.6 26.4 112.6 27.9C116.9 29.6 117.9 29.6 120.7 28.5L123.8 27.2L119.9 34.4C116.7 40.4 116.2 42.2 116.7 45.4C117.2 48.4 116.9 49.5 115.7 50.2C114.7 50.7 114 51.7 114 52.5C114 53.2 113.1 54.2 112 54.5C110.7 54.9 110 55.9 110.1 57.3C110.2 59 110.3 59.1 110.7 57.8C111.2 55.9 114 55.3 114 57C114 58.7 109.3 63 107.5 63C106.6 63 105.7 62.3 105.4 61.5C104.7 59.7 101.7 59.5 102.3 61.3C102.5 61.9 103.1 62.5 103.6 62.6C106.8 62.9 110 65.2 110 67.2C110 68.9 110.3 69.1 110.9 68.1C111.9 66.5 114 67.5 114 69.5C114 70.3 113.3 70.6 112 70.3C110.9 70 110 70.3 110 70.9C110 71.5 110.5 72 111.1 72C111.6 72 111.8 72.5 111.5 73C111.2 73.6 111.3 74 111.8 74C112.3 74 113 74.9 113.3 75.9C113.6 77.4 113.1 77.9 110.8 78.4C108.2 78.9 108 79.2 109 80.5C110 81.7 109.9 82.1 108.6 82.6C106 83.6 106.8 84.7 110.5 85.4C112.6 85.8 114 86.7 114 87.5C114 88.3 113.6 89 113 89C112.5 89 112 89.6 112 90.4C112 91.3 111.3 91.6 110 91.3C108.7 91 108 89.9 108 88.4C108 86.9 107.4 86 106.5 86C104.8 86 104.5 84.4 106 83.5C106.5 83.2 106.9 81.9 106.8 80.7C106.8 79.5 106.8 78.1 107 77.5C107.6 75.1 106.9 70.9 106 71.5C105.5 71.8 105 71.6 105 71.1C105 70.5 104.5 70 103.9 70C103.4 70 103.1 70.4 103.5 70.9C103.8 71.4 103.6 72.1 103 72.5C101.4 73.5 101.8 77 103.5 77C104.3 77 105 77.9 105 79.1C105 80.7 104.6 81 103 80.5C101.5 80 101.2 80.2 101.6 81.3C101.9 82.1 101.7 83.1 101.1 83.4C100.5 83.8 100.3 84.7 100.6 85.5C101.5 87.7 99.9001 89.6 98.6001 87.9C97.7001 86.7 97.2001 86.8 95.3001 88.5L93.2001 90.6L95.8001 90.4C97.3001 90.3 99.0001 90.1 99.6001 90.1C100.2 90 101.2 89 101.8 87.8L102.9 85.5V87.8C103 90.2 100.7 93.4 99.6001 92.3C99.3001 92 98.2001 92.4 97.3001 93.3C96.3001 94.1 95.1001 94.9 94.5001 94.9C94.0001 95 93.5001 95.7 93.6001 96.5C93.6001 97.3 93.7001 99.3 93.8001 100.9C94.0001 103.1 94.6001 103.9 96.6001 104.4C98.7001 105 99.0001 105.3 98.0001 106.5C96.9001 107.8 97.3001 108 99.9001 108C101.6 108 103 108.4 103 108.9C103 109.4 103.6 110 104.4 110.3C105.3 110.7 106.6 109.3 108.1 106.4C111.9 98.8 113.1 99.6 113.1 109.4C113.1 114.2 113.6 116.2 114.7 117.2C116.1 118.3 116.3 118.3 115.8 116.9C114.9 114.7 118.7 111.3 122.5 110.7C125.3 110.3 125.3 110.3 122.9 110.1C119.4 110 118.2 108.4 117.9 103.2C117.6 99.9 118 98.6 119.3 97.9C120.6 97.1 121 97.3 121 98.8C121 99.8 121.7 101.5 122.6 102.6C123.4 103.6 123.8 103.9 123.4 103.1C122.9 102 123.1 101.8 124.3 102.3C125.7 102.8 126 102.3 126 99.5C126 97.3 126.6 95.7 127.8 95C129.1 94.2 129.1 94 128 94.1C125.8 94.3 122 92.9 122 91.9C122 91.4 121.2 91 120.3 90.9C119.2 90.9 119 90.6 119.8 90.3C121.1 89.8 121.5 86.9 120.3 87.1C118.1 87.5 117 86.8 117 85.4C117 83.9 117.2 83.9 119.3 85.3C121.6 86.8 131.2 88.1 130.3 86.8C130.1 86.3 130.6 86 131.4 86C132.3 86 133 86.5 133 87.2C133 87.8 133.3 88.1 133.6 87.7C133.9 87.4 135.3 87.5 136.5 88C138.1 88.6 139 88.5 139.3 87.7C139.9 85.9 137.8 84.3 135.5 84.7C134.2 85 134.5 84.6 136.4 83.6C138.6 82.4 139.6 82.3 140.6 83.1C141.4 83.7 141.7 84.7 141.3 85.4C140.9 86 141.4 85.9 142.3 85.1C143.7 84 144 84 144 85.1C144 85.9 144.9 85 146 83.2C147.1 81.4 148 79.2 148 78.4C148 77.5 148.9 75.7 150 74.2C151.1 72.8 152.6 69.7 153.2 67.3L154.3 62.9L156.8 68.4C158.2 71.6 159.7 73.7 160.3 73.3C160.9 72.9 161.1 73.3 160.7 74.3C160.2 75.6 160.6 76 162.2 76C163.4 76 164 76.3 163.6 76.7C163.3 77.1 164 78 165.2 78.8L167.5 80.1L165.3 79.7C163.1 79.2 163.1 79.3 164.8 81.6C166 83.3 167.1 83.9 168.8 83.5C170.5 83.1 171 83.4 171.1 85C171.2 86.1 171.3 87.4 171.4 87.9C171.6 89.1 177.6 94 178.2 93.4C178.5 93.2 179.3 93.6 180 94.5C180.9 95.6 181 96.3 180.1 97.4C179.5 98.1 179.3 99.6 179.7 100.5C180.2 101.9 180 102.2 178.8 101.7C177.6 101.3 177.4 101.6 177.7 103.1C178 104.1 178.9 105 179.6 105C180.4 105 181 106 181 107.6C181 109.2 180.6 109.9 179.9 109.4C179.1 108.9 179.1 109.3 179.9 110.8C180.5 111.9 181 114.6 180.9 116.7C180.9 118.8 180.6 119.9 180.3 119.2C179.5 117.2 178 118.9 178 122C178 125.5 179.7 126.9 180.2 123.8C180.4 122.5 180.6 125.1 180.7 129.5C180.7 133.9 180.4 136.7 180.1 135.7C179.5 134 179.3 134.1 178.2 136.4C177.5 138 177.4 139.2 178 139.5C178.6 139.9 179 140.6 179 141.2C179 141.8 178.3 141.7 177.3 140.9C176.4 140.1 175.9 140 176.3 140.6C176.7 141.3 174.3 144.2 170.9 147.4C167.5 150.6 165 153.4 165.3 153.6C165.5 153.9 167.1 154.5 168.8 154.9C171.4 155.7 171.9 155.5 173.1 153.1C173.8 151.7 174.3 150.2 174.2 149.9C174.1 149.5 175.3 149.3 176.9 149.4C179.3 149.6 179.6 149.3 179.2 147.3C178.9 145.6 179.4 144.8 181.1 144.1C185.6 142.5 186.7 144 184.5 149.2C184 150.5 184.3 150.7 185.7 150.4C187.8 149.8 190.3 145.3 188.9 144.4C188.3 144.1 188.4 143.3 189.1 142.4C190 141.3 189.9 141 188.6 141C187.7 141 187 140.6 187 140C187 139.5 188.1 139 189.5 139C190.9 139 192.4 138.2 193 137C194.6 134 196 134.6 195.5 138.1C195.3 139.8 195.4 140.9 195.7 140.6C196.9 139.5 197 133.6 195.9 132.9C195.1 132.5 195.1 131.7 195.8 130.3C196.6 128.9 196.6 128 195.8 127.2C194.5 125.9 195.6 123.9 197.5 124.6C198.3 124.9 199.4 124.2 200.1 122.8C200.7 121.5 201.9 120.1 202.7 119.7C203.7 119.1 203.9 117.8 203.4 115.2C202.8 112.1 202.9 111.7 204.1 112.6C204.9 113.2 206.3 114 207.4 114.4C208.8 114.9 209.1 114.6 208.8 113.2C208.1 110.8 209.6 108 211.5 108C212.3 108 213 107.6 213 107C213 106.5 212.1 106 211 106C207.8 106 208.7 103.3 212.1 102.6C216.9 101.7 223 101.9 223 103C223 103.6 221.8 104 220.4 104C218.5 104 217.9 104.4 218.2 105.8C218.4 106.7 219.2 107.4 219.8 107.2C220.9 107 221.5 110.1 221.1 114.3C221 115.2 221.4 116 221.9 116C222.5 116 223 114.7 223 113.1C223 111.5 223.6 110 224.5 109.6C225.3 109.3 226 109.5 226 110C226 110.6 225.6 111 225 111C224.4 111 224 114.3 224 119C224 125.5 223.7 127.1 222.3 127.9C220.7 128.8 220.7 128.9 222.1 129C224.3 129 226.9 131.9 224.9 132.1C224.1 132.2 223.2 132.2 222.8 132.1C222.4 132.1 222.3 132.9 222.5 133.9C222.7 135.2 222.1 136 220.8 136.3C219.4 136.7 218.9 137.4 219.4 138.5C219.7 139.4 219.6 139.8 219 139.5C217.5 138.6 217.8 139.9 219.4 141.5C220.1 142.3 221 142.6 221.4 142.3C221.7 141.9 222 143 222 144.6C222 148 222.7 149 225.7 150.7C227.4 151.7 228 151.7 228.4 150.7C229 149.5 228.6 154.3 227.9 157C227.6 158 228.2 158.5 229.7 158.5C231 158.5 232 158.8 232 159.3C232 159.7 232 160.5 232 161C232 161.6 230.9 162 229.6 162C228.2 162 226.8 162.5 226.5 163C225.9 164 227.2 164.4 229.8 164.1C230.4 164 231 164.4 231 164.9C231 165.4 230 166 228.8 166.2C226.5 166.5 226.5 166.5 229.3 169.2C232.5 172.2 231.6 173.6 227.9 171.5C226.6 170.7 224.5 169.6 223.2 169C221.9 168.5 221.2 167.5 221.6 166.9C222 166.2 221.5 165.9 220.4 166.2C218.3 166.6 217.2 170 219.1 170C219.8 170 221.1 170.7 222.1 171.6C223 172.4 224.7 173.3 225.7 173.5C226.7 173.7 227.6 173.9 227.8 174C227.9 174.2 228.6 174.3 229.3 174.4C229.9 174.5 230.4 175.2 230.2 175.9C228.9 181.7 228.2 192.2 229 194.6L229.8 197.5L229.9 194C230 191.1 230.2 190.8 231.1 192.3C231.6 193.2 233.2 194 234.5 194C235.9 194 237 194.5 237 195.1C237 195.6 237.5 195.8 238 195.5C239.8 194.4 239.1 193.2 236.1 192.2C234 191.4 233.1 190.4 232.6 187.8C231.9 184.2 232.8 178 233.9 178C234.9 178 238.5 182.2 239.3 184.3C240 186.2 242 186.6 242 184.9C242 182.7 244.9 186.8 245.2 189.5C245.4 191.1 246.1 192.5 246.8 192.6C247.5 192.7 247.6 192.6 247.1 192.4C246.4 192 246.5 191.2 247.2 190.1C248.1 188.6 247.9 187.9 246.1 186.1C244.9 184.9 244.2 183.5 244.5 183C244.8 182.5 243.5 181.4 241.5 180.6C239.6 179.8 238 178.6 238 178C238 177.4 238.5 177.2 239.1 177.5C239.6 177.9 241.2 177.9 242.6 177.6C244.5 177.1 245 176.5 244.5 175C244 173.5 244.2 173.2 245.4 173.6C246.5 174 247 173.7 247 172.6C247 171.7 246.6 171 246 171C245.5 171 245 169.2 245 167C245 163.6 244.6 162.8 242.5 162C241.1 161.5 240 160.5 240 159.8C240 159.1 239.2 160 238.3 161.8C236.9 164.7 236.9 165.3 238.1 166.1C239.3 166.9 239.3 167.1 238 168C235.6 169.5 234.5 168.6 234.4 164.9C234.3 161.4 236.6 156.6 238 157.5C238.4 157.8 239.3 157.3 240 156.5C241.6 154.6 243.4 154.5 242.7 156.4C242.4 157.2 242.8 158.1 243.6 158.4C245.5 159.1 246.4 156.7 245.6 153C245.3 151.2 245.5 150 246.1 150C246.7 150 246.7 149.2 246 147.9C244.4 145 245.6 144.3 248.9 146.3C252.1 148.2 253.4 148.5 252.5 147.1C251.8 145.8 264.4 146.6 266.9 148C270 149.6 271 149.2 271 146.5C271 144.5 271.5 144 273.6 144C275.6 144 276 143.7 275.2 142.7C274.5 141.9 274.6 141 275.5 139.7C276.6 138.1 276.8 138.4 277.2 142.2C277.5 145.1 277.2 147.1 276.2 148.3C275.4 149.2 274.9 150.3 275.3 150.6C276.1 151.5 278 150.1 278 148.6C278 147.8 279.1 146.5 280.5 145.6C281.9 144.7 282.8 143.4 282.4 142.8C282 142.2 282.3 141.9 283.1 142.2C284.4 142.7 284.8 146.5 283.9 150C283.6 151.1 284.4 151.6 286.8 151.8C288.5 152 290 152.5 290 153C290 153.5 290.7 153.7 291.5 153.4C292.4 153 293 153.4 293 154.4C293 156 292.1 156.4 288.3 156C285.6 155.8 285.2 157.5 287.6 158.4C288.5 158.8 289 159.3 288.7 159.7C288.3 160 288.5 160.9 289 161.5C289.8 162.4 289 162.7 286 162.4C281.2 162.1 280.7 163.4 285.3 164.5C287.5 165 287.9 165.4 286.8 165.7C284 166.4 284.7 167.9 288.3 168.8C290.4 169.4 291.5 170.2 291.5 171.5C291.5 172.6 292.4 173.4 294 173.7C297.5 174.3 303.2 173.1 302.5 171.9C302.1 171.4 301.5 171.2 301 171.5C300.5 171.8 299.9 171.6 299.5 171.1C299.2 170.5 298.2 170.3 297.2 170.6C295.6 171.1 295.6 171.1 297.3 170C298.2 169.4 299 167.7 299 166.2C299 164.5 299.3 164 299.8 164.7C300.4 165.7 301.5 165.4 304 163.5L307.4 161H304.7C302.8 161 302 161.5 301.9 162.8C301.9 164.1 301.7 164.2 301.3 163C301 162.2 299.8 160.7 298.6 159.7C296.5 157.9 296.6 157.9 301.6 158.4C305.6 158.9 307 158.7 308 157.5C308.7 156.6 310 156.2 310.8 156.5C311.5 156.8 313.5 156.2 315 155.3C317.3 154 318.4 153.9 320.3 154.7C322.4 155.7 322.9 155.6 323.3 154.1C323.6 153 322.8 151.6 321.4 150.5C320.1 149.5 319 148.3 319 147.8C319 147.3 318.3 146.2 317.5 145.4C315.3 143.2 315.7 142 318.5 142C320 142 321 142.6 321 143.5C321 145 324.8 147.5 325.7 146.6C326 146.3 327.6 146.8 329.2 147.6C332 149 332.1 149.3 330.6 150.9C329.4 152.3 329.3 152.9 330.3 153.9C331.9 155.5 331.8 160.2 330.1 161.6C328.9 162.5 329 163 330.8 164.8C333.9 167.9 335 167.5 334.3 163.5C333.9 160.8 334.1 160 335.2 160C336.1 160 337.3 159.4 337.9 158.6C338.9 157.4 338.5 156.8 336.1 155.4C334.4 154.4 333 153.2 333 152.8C333 151.6 334.4 151.8 335.8 153.2C337.6 155 338.3 153.5 336.9 151.2C335.7 149.4 335.9 148.9 338.4 146.9C340.7 145.1 341 144.5 339.9 143.6C338.4 142.4 338 139.8 339.3 138.9C340.8 137.8 338.8 135 336.5 135C335.2 135 333.9 134.6 333.5 134.1C333.2 133.6 331.4 133.4 329.5 133.7C325.3 134.4 324.9 133 328.6 130.1C330.1 128.9 330.8 128 330.1 128C329.5 128 329 127.6 329 127C329 123.4 338.3 130.8 340.4 136C341.6 139.1 342.9 140.3 347.3 142.3C353.9 145.3 358.6 149.9 362.4 157C364 160 366.7 164.1 368.4 166.1C372 170.2 375.2 175.7 375.7 178.4C375.9 179.4 376.7 181.7 377.4 183.4C385 200.2 387.1 205.8 387.7 209.8C388 212.4 389.1 215.6 390.1 216.9C392.8 220.3 394.3 226.5 396 240.5C396.5 244.9 397.9 251.1 399 254.3C400.4 258.2 401.4 264.8 402.1 275.5C403.2 290.9 403.2 291 400.7 296.2C398.5 300.9 398.3 302.7 398.4 313.3C398.5 320.3 398.1 325.1 397.5 325.4C397 325.6 396.9 326.1 397.3 326.6C397.7 327.1 398.5 326.8 399 326C399.7 324.9 400.6 325.1 403.8 327.4C406 328.9 408.7 331.1 409.9 332.4L412.1 334.7L409.6 334.3C408 334 407 334.2 407 334.9C407 335.5 407.5 336 408 336C408.6 336 409 336.7 409 337.5C409 339.3 409.5 339.4 411.8 337.9C413.2 337 414.3 337.6 417.7 340.8C420 343 423.4 345.1 425.2 345.5C427 345.9 430.5 347.3 433 348.5C435.5 349.7 440.1 351 443.4 351.4C453.3 352.5 453 352 453 368.1C453 380.9 452.8 382.1 451.3 382C448.8 381.7 445 383 445 384.1C445 384.6 445.5 385 446 385C446.6 385 447 385.7 447 386.6C447 387.8 446.4 388.1 444.8 387.6C443.5 387.3 441.9 387 441.3 387C440.6 387 440 386.5 440 386C440 385.4 438.9 383.8 437.6 382.3C435.7 380.2 434.7 379.9 432.1 380.5C430.4 380.9 429 381.6 429 382.1C429 382.6 430 382.6 431.3 382.1C434 381 437 382.4 437 384.7C437 386 436.1 386.2 431.1 385.7C427.8 385.3 423.7 384.4 421.8 383.6C417.1 381.5 414.7 380.6 413.5 380.5C413 380.4 411.1 379.6 409.3 378.7C405.3 376.6 405 376.6 405 379C405 380.6 404.3 381 402 381C399.8 381 399 380.5 399 379.2C399 378.2 397.8 376.7 396.3 376C394.7 375.2 393.3 374.4 393.1 374.3C392.9 374.2 393.3 373.4 394 372.5C394.7 371.7 395 370.3 394.6 369.5C394.3 368.7 394.5 368 395.1 368C395.8 368 395.9 366.8 395.5 364.8C394.9 362.2 395 361.8 396.4 362.3C397.4 362.7 398.4 362.2 399 361C399.8 359.5 400.7 359.2 403.8 359.7C405.8 360 407.7 360.7 407.8 361.2C408.5 362.9 411 361.9 411 360C411 358.5 410.3 358 408.1 358C403.7 358 398.9 355.7 400 354.1C400.4 353.3 401.5 353 402.3 353.3C404.3 354 407.2 350.3 406.5 347.9C406.1 346.9 405.4 346 404.8 346C404.2 346 404 345.1 404.3 344.1C404.6 342.9 404.2 341.9 403.2 341.5C402 341.1 401.9 340.7 402.9 339.7C403.8 338.8 404.3 338.8 405 340C405.8 341.3 406 341.3 406 339.8C406 338.9 406.6 337.9 407.3 337.7C408 337.3 407.9 337.1 406.9 337.1C404.3 337 403.7 334 406.1 333.2C408.1 332.4 408.1 332.3 406.4 330.9C405.1 329.8 404.6 329.8 404.3 330.8C403.7 332.4 400.3 332.3 399.7 330.6C399.4 329.9 398 329.1 396.7 328.8C394.9 328.4 394.3 328.7 394.7 329.7C395 330.4 395.6 331 396.1 331C396.6 331 397 331.7 397 332.5C397 334.2 395.2 334.4 391.5 333C389.2 332.1 389 332.2 390 333.9C390.7 335.3 390.6 336.1 389.6 336.9C388.8 337.6 388 339.2 387.7 340.6C387.3 342.8 387.7 343.4 390.2 344.2L393.1 345.2L390.8 346.4C389.5 347 388.4 348.6 388.2 349.8C387.8 352.3 387 352.6 385.2 350.8C384.4 350 384.2 350.8 384.5 354.3C384.8 357.9 384.4 359.5 382.8 361.6C381.6 363 380.7 365.5 380.7 367.1C380.7 368.6 380.3 369.7 379.8 369.4C379 368.9 378.6 370.3 378.9 372.6C379 373.3 378.4 374 377.5 374.4C376.7 374.7 376 375.8 376 376.8C376 380.9 360.4 385.7 341 387.5C321.6 389.4 318.7 389.3 312.5 387ZM351.2 383.5C351.2 383 350.7 382.4 350.1 382.2C349.5 382 349 382.6 349 383.5C349 384.4 349.5 385 350.1 384.8C350.7 384.6 351.2 384 351.2 383.5ZM288.4 377.8C287.9 377.1 287.7 375.3 287.9 373.8C288.1 371.8 287.7 371 286.6 371C285.8 371 284.2 369.8 283.1 368.4C281.9 366.9 281 366.2 281 366.8C281 367.4 280.3 367.7 279.5 367.4C277.7 366.7 277.5 364.4 279.3 363.7C280 363.3 279.9 363.1 278.9 363.1C277.7 363 277.1 364.3 276.6 368C275.8 373.7 277.2 377.4 279.8 376.6C280.7 376.3 283.1 376.9 285 378C288.8 380 289.7 379.9 288.4 377.8ZM202.3 371.4C203.2 371.6 204 371.4 204 370.9C204 370.4 203.1 370 202 370C200.9 370 200 369.3 200 368.5C200 367.7 199.6 367 199 367C197.9 367 197.9 367 197.6 372.3L197.3 376.2L198.9 373.5C199.9 371.8 201.1 371.1 202.3 371.4ZM261 370.5C259.7 367.1 258 368.2 258.1 372.3C258.2 374.1 258.4 374.7 258.7 373.7C258.9 372.8 259.5 372.2 260 372.5C260.5 372.8 260.7 373.8 260.4 374.8C259.9 376.4 259.9 376.4 260.9 374.8C261.7 373.7 261.7 372.3 261 370.5ZM343.7 367.3C345 366.3 345.1 365.8 344 364.5C341.4 361.3 338 363.4 340.2 366.9C341.3 368.7 341.2 369.2 339.5 370.4C337.5 371.8 337.5 371.9 339.5 373.8C341.5 375.7 341.5 375.7 341.8 372.1C342 370.1 342.8 368 343.7 367.3ZM402.8 372.4C401.7 371.3 401 371.2 400.6 371.9C400.2 372.5 400.6 373.3 401.4 373.6C402.3 373.9 402.7 374.7 402.3 375.4C402 376 402.3 376 403.1 375.2C404.2 374.2 404.2 373.7 402.8 372.4ZM226 374C226 373.5 225.1 373 224 373C222.9 373 222 373.5 222 374C222 374.6 222.9 375 224 375C225.1 375 226 374.6 226 374ZM233.3 372.8C233.7 371.8 234.1 371.9 234.9 373C235.8 374.3 236 374.3 236 372.8C236 371.8 235.7 371 235.3 370.9C234.8 370.9 233.6 370.7 232.4 370.6C230.8 370.4 230.4 370.8 230.8 372.2C231.3 374.3 232.6 374.6 233.3 372.8ZM271.5 371C271.2 370.5 271.8 370 272.9 370C275.5 370 275.9 369.1 275.3 365.7C274.5 361.8 270.7 360 268.2 362.3C267.2 363.3 265.6 364 264.8 364C263.8 364 263.1 365.1 262.8 367C262.4 369.3 262.8 370.1 264.3 370.6C265.5 371 266.6 370.7 267.1 369.9C267.8 368.7 268.2 368.8 269.7 370.3C271.6 372.2 272.4 372.5 271.5 371ZM239 367.1C239 366.6 238.1 366.4 237 366.7C235.9 367 235 367.9 235 368.7C235 369.8 235.4 369.8 237 369C238.1 368.4 239 367.5 239 367.1ZM213.3 367.2C212.6 366.7 212.6 366.1 213.6 365.2C214.6 364.3 215 364.3 215 365.1C215 365.8 215.9 366 217.5 365.6C219 365.2 221.2 365.6 223 366.5C224.6 367.3 227.1 368 228.5 368C230.6 368 231 367.6 230.5 366.1C230.1 364.8 230.5 364.1 231.8 363.8C234 363.2 236.4 357.4 234.9 356.5C234.4 356.1 234 356.5 234 357.2C234 358 233.1 358.6 232 358.7C230.9 358.8 230.2 358.4 230.6 357.9C230.9 357.4 230.1 356.1 228.8 355C227.5 353.9 227.1 353.1 227.8 353C228.4 353 229 352.6 229 352C229 350.4 224.8 350.8 223.6 352.5C223 353.4 221.2 354.3 219.7 354.5C216.3 355.2 214.2 354.2 216.1 352.8C217 352.2 216 352 213 352.4L208.5 353L211.8 350.3C213.6 348.7 215 346.7 215 345.8C215 344.8 215.4 344 215.9 344C217.2 344 220.3 334.3 219.6 332.5C219.3 331.7 219.5 331 220 331C221.5 331 221.2 326.2 219.8 325.7C218.8 325.4 219.1 324.5 220.6 322.4C222 320.4 222.6 318.4 222.3 316C222 313.2 222.5 311.8 224.9 309C228.3 305.2 228.8 303.5 226.4 304.4C225.5 304.7 225.2 304.6 225.5 303.9C225.9 303.3 226.8 303.1 227.5 303.4C229.5 304.1 233 299.7 233.7 295.4C234.4 290.5 233.3 291.3 232.2 296.6L231.3 300.5L230.1 297.7C229.2 295.4 228.5 294.9 226.3 295.2C224.9 295.4 223.5 296.1 223.4 296.8C223.3 297.5 223.4 297.6 223.7 297C224.5 295.4 227.7 295.8 228.4 297.6C229.3 299.9 228.5 300.4 224.5 300.3C222.6 300.2 221.2 300.6 221.5 301C221.8 301.5 221 302.2 219.8 302.5C218.5 302.9 216.5 304.3 215.4 305.6C213.6 307.6 213.1 307.8 212.6 306.5C212.3 305.7 211.1 305 209.9 305C207.9 305 207.8 305.1 209.4 307.5C210.3 308.9 210.6 310 210 310C209.2 310 209.3 310.6 210 312C210.7 313.4 210.7 314 210 314C209.5 314 209 314.7 209 315.6C209 316.4 208.6 316.9 208.1 316.6C207.1 315.9 205 321.2 205 324.6C205 325.9 204.5 327.2 203.9 327.6C203.3 328 204.4 329.1 206.6 330.4C208.7 331.5 210.4 332.7 210.3 333C209.2 341.9 208.5 344.2 206.7 346.2C205.5 347.5 204.6 349.5 204.8 350.7C205 351.9 204.2 353.7 203 354.8C201.2 356.5 201.1 356.8 202.5 357.4C205.1 358.4 203.1 360.2 200.1 359.5L197.5 358.9L199.8 361C202.2 363.3 202.7 365 200.8 365C200.2 365 199.9 365.3 200.3 365.6C200.6 365.9 201.6 365.7 202.6 365.2C204.4 364.2 209 365.5 209 367.1C209 367.9 213.1 368.8 214 368.2C214.2 368 213.9 367.6 213.3 367.2ZM243 365.6C242.3 364.9 241.6 365 240.8 365.8C239.8 366.8 239.8 367.3 241 368C242.7 369.1 244.4 367 243 365.6ZM240.1 359.3C240.4 357.5 240.3 356.3 239.9 356.6C239.4 356.9 239 357.8 239 358.6C239 359.4 238.3 360.3 237.5 360.6C235.4 361.4 235.6 363.2 237.7 362.8C238.7 362.6 239.7 361.2 240.1 359.3ZM340.1 355.7C339.5 355.1 338.3 355.4 336.4 356.9C334 358.8 333.9 359 335.7 359C336.8 359 338.4 359.8 339.1 360.7C340.4 362.2 340.5 362.1 340.8 359.5C341 358 340.7 356.3 340.1 355.7ZM345.6 358C346.4 358 347 358.5 347 359.1C347 359.6 348.1 358.9 349.5 357.4C350.9 355.9 351.8 354 351.6 353.3C351.3 352.6 351.4 352.1 351.8 352.1C353.8 352.4 355 351.8 355 350.5C355 349.7 354.6 349 354 349C353.5 349 353 349.4 353 349.9C353 350.4 352.1 351 350.9 351.3C349.7 351.6 349.1 352.3 349.5 352.9C349.8 353.6 349.5 353.7 348.6 353.4C347.5 353 347 353.4 347 354.4C347 355.3 346.3 356 345.5 356C344.7 356 344 356.2 344 356.4C344 356.6 343.8 357.4 343.7 358.2C343.5 358.9 343.5 359.2 343.7 358.8C344 358.3 344.8 358 345.6 358ZM438 358C438 357.5 437.1 356.6 436 356C434.4 355.2 434 355.2 434 356.4C434 357.2 434.8 358.1 435.8 358.3C436.7 358.6 437.6 358.8 437.8 358.9C437.9 358.9 438 358.6 438 358ZM417 357.1C417 355.7 415.2 354.8 414 355.5C413.4 355.9 413.2 356.6 413.5 357.1C414.3 358.3 417 358.3 417 357.1ZM298.2 329.5C299.4 327.9 299.1 326 297.6 326C296.9 326 296 327.1 295.8 328.5C295.3 330.9 296.8 331.5 298.2 329.5ZM266 324C266 323 265.6 321.9 265.2 321.6C264.7 321.3 264.3 322.4 264.3 324C264.3 325.6 264.7 326.7 265.2 326.4C265.6 326.1 266 325 266 324ZM332.5 319C332.2 318.4 332.4 318 332.9 318C333.5 318 334 318.8 334 319.7C334 321 334.3 321.1 335.2 320.2C336.1 319.3 336.1 318.4 335.2 316.5C334.1 314 332 313.1 332 315C332 315.6 331.3 316 330.5 316C328.9 316 328.4 320.3 329.7 323.5C330.2 325 330.5 324.9 331.7 322.6C332.5 321.1 332.8 319.5 332.5 319ZM289 322C289 321.6 288.4 320.7 287.6 320.1C286.1 318.8 284.4 320.2 285.4 321.8C286 322.8 289 322.9 289 322ZM281.7 318.6C281.4 317.8 281.9 316.9 282.8 316.5C284.2 316 284.2 315.8 283 315C280.9 313.6 280 313.8 280 315.5C280 316.4 279.3 317.3 278.5 317.6C276.1 318.6 276.8 320 279.6 320C281.4 320 282.1 319.6 281.7 318.6ZM303 319.6C303 317.7 298.6 310 297.5 310C295.8 310 295.5 311.6 296.9 312.5C297.4 312.8 298.2 314.4 298.5 316.1C299 318.4 299.4 318.9 300.1 317.9C300.8 316.8 301 316.9 301 318.3C301 319.2 301.5 320 302 320C302.6 320 303 319.8 303 319.6ZM308.1 317.3C307.1 313.5 305.3 313.3 305.4 317C305.5 319.1 306 320 307.2 320C308.5 320 308.7 319.4 308.1 317.3ZM275.7 312.6C274.6 309.9 273 310.9 273 314.2C273 317.2 273.1 317.3 274.6 315.8C275.5 314.9 276 313.4 275.7 312.6ZM291.3 314.8C292 312.6 290.9 310.1 289.5 310.6C287.4 311.5 286.7 309.1 288.4 306.5C290.4 303.4 288.7 302.2 286.6 305.2C284.2 308.6 284.5 313.5 287.3 314.8C290.3 316.2 290.8 316.2 291.3 314.8ZM316.9 310.7C317 310.2 316 310.2 314.8 310.5C312.6 311.2 312.6 311.1 314.4 309.8C315.7 308.8 315.9 308.1 315.2 307.6C313.6 306.6 313.7 303.7 315.3 304.3C315.9 304.5 316.4 305.2 316.3 305.8C316.2 306.3 316.8 306.7 317.8 306.6C319 306.5 319.5 307.3 319.5 309C319.5 310.6 320.1 311.6 321.3 311.8C323 312.1 323 311.9 321.9 309.9C321 308.1 321 307.5 321.9 307.2C322.8 306.9 322.8 306.5 322 305.5C321.3 304.6 321.1 302.4 321.5 299.6C322.2 295 323.6 293.6 324.5 296.5C326.2 301.8 326 301.6 328.1 299C329.4 297.3 330.2 296.9 330.7 297.6C331.2 298.3 332.6 299 334 299.1C335.4 299.3 336.5 300.2 336.5 301C336.5 301.8 337 303 337.5 303.6C338.6 305 340.3 304.3 339.5 302.9C339.1 302.4 339.4 302 340.1 302C340.9 302 340.9 301.6 340 300.5C339.3 299.7 339 298 339.3 296.9C339.7 295.2 339.6 295 338.7 295.9C338.1 296.5 336.9 297 336.1 297C335.2 297 335.4 296.4 337 295C338.3 293.9 338.8 293 338.1 293C337.4 293 337.2 292.6 337.5 292C337.8 291.5 337.7 291 337.1 291C335.9 291 333 288.2 333 286.9C333 286.4 333.6 286 334.4 286C335.2 286 336.1 285.3 336.4 284.5C336.9 283.1 337.2 283.1 339.5 284.6C341.9 286.2 342 286.1 342 284.2C342 283.1 341.2 282 340.3 281.6C339.3 281.3 337.9 280.7 337.3 280.4C336.5 280.1 336 280.5 336 281.4C336 283.3 334.9 283.5 333.2 281.8C331.3 279.9 331.8 278 334.1 278C335.6 278 336 277.5 335.6 276.5C334.9 274.6 338 274.5 339.9 276.3C341 277.3 341.1 277.1 340.7 275.5C340.4 274.4 339.9 272.2 339.5 270.6C338.8 267.3 336.8 265 333.1 263.3C330.5 262.1 330.5 262.1 334 262.3C336.2 262.4 337.4 263 337.2 263.8C336.9 265.4 338.5 265.3 340.3 263.5C341.3 262.5 342.9 262.3 345.4 262.7C349.4 263.3 349.7 263.8 347.5 265.4C346.3 266.3 346.5 266.5 349 266.6C350.7 266.7 352 266.2 352 265.5C352 264.9 353.1 263.7 354.5 263C355.9 262.3 357 261.3 357 260.9C357 260.1 355 260.2 353.5 261.2C352.1 262 350.5 261 349.7 258.8C349.2 257.4 348.5 257.3 345.5 258.1C341.7 259.2 338 258.5 338 256.8C338 256.2 338.9 256 340.1 256.3C341.3 256.6 342.3 256.3 342.7 255.4C343.3 253.7 346 253.5 346 255.1C346 255.9 346.4 255.9 347.4 255.1C348.5 254.2 348.9 254.2 349.2 255.1C349.5 256.1 350.3 255.9 352 254.7L354.4 253H351.7C348.8 253 348.7 252.9 349.6 250.6C350.1 249.2 350.4 249.2 351.7 250.5C353.8 252.6 357.1 252.4 357.7 250.1C358.4 247.5 361 246.5 361 248.8C361 249.8 360.4 251.2 359.8 251.9C358.7 253 358.8 253.2 360.3 252.6C361.3 252.3 362.6 252 363.1 252C363.6 252 363.9 250.7 363.8 249C363.7 247.4 363.2 246 362.7 246C362.3 246 362 245.4 362.1 244.8C362.4 242.5 362 241 361.3 241.1C358.2 241.6 357.6 239.3 359.5 234.8C359.9 233.7 359.8 233 359.1 233C358.5 233 357.5 234.2 356.9 235.6C356 238.1 355.7 238.2 350.7 237.7C347.2 237.3 346 237.4 347 238C348.2 238.8 348.2 239 347.1 239C346 239 346 239.4 347.2 241.3C349 244 350.1 248 349.1 248C348.6 248 347.3 246.7 346 245C344.7 243.4 343.1 242 342.4 242C341.6 242 341 241.4 341 240.7C341 240 339.4 238.8 337.4 238.1C333.3 236.6 331.3 237.7 330.5 241.8C330.1 244.3 327.7 247 326.1 247C325.5 247 325 247.7 325 248.6C325 250 324.9 250 323.4 248.6C322.6 247.7 321.4 247.3 320.8 247.6C320.3 247.9 321.7 249.2 323.9 250.3C327.9 252.3 329 254.2 327 255.5C326.3 255.9 326.3 256.8 327 258.1C327.9 259.7 327.7 260 325.9 260C324.4 260 324 260.5 324.4 261.5C325.1 263.5 324.1 265.9 322 267C320.5 267.8 320.3 267.6 320.7 266C321.1 264.6 320.7 264 319.4 264C318.5 264 317.9 263.7 318.2 263.4C319 262.7 314.6 258 313 258C312.2 258 312 258.9 312.5 260.8C313.1 263.4 313.1 263.4 311.6 261.5C310.2 259.7 310.1 259.7 310 261.3C310 262.2 309.5 263 308.9 263C308.4 263 308.1 262.6 308.4 262.1C308.8 261.6 308.1 261.4 307 261.7C305.9 262 304.7 262.7 304.3 263.3C304 263.8 304.1 264 304.6 263.7C305.1 263.4 305.6 264 305.6 265C305.6 266.5 305.2 266.6 303.3 265.7C300.5 264.4 298 265.4 298 267.8C298 269.7 295 273.1 295 271.4C294.9 270.9 294.3 271.5 293.6 272.8C292.7 274.5 292.6 276.4 293.2 279.8C293.7 282.4 294.1 285.5 294.2 286.8C294.2 288.2 294.8 289 296 289C297.1 289 298.2 290 298.6 291.3C299 292.5 299.7 293.8 300.3 294.1C300.8 294.5 300.9 295.4 300.5 296.1C299.9 297 299 296.6 297.2 294.4L294.8 291.5L295.5 295.3C295.9 297.9 295.6 299.7 294.5 301.2C293.7 302.5 293.1 304.4 293.1 305.5C293.2 307.1 293.3 307.1 293.7 305.8C293.9 304.9 294.7 304.3 295.5 304.6C296.3 304.9 296.6 305.8 296.3 306.6C296 307.4 296.4 308 297.3 308C298.1 308 299.3 306.7 299.9 305C301.2 301.1 303.1 301 302.4 304.9C301.9 307 302.4 308.2 304 309.8C305.2 310.9 306.9 311.6 307.7 311.3C308.9 310.8 308.9 310.6 307.8 309.9C306.8 309.2 306.8 309 307.8 309C309.7 309 309.2 307 306.8 304.8L304.5 302.8L306.8 303.3C308.7 303.7 309 303.4 309 300.9C309 298.7 309.5 298 311 298C313.4 298 313.7 301.2 311.4 303C309.7 304.5 310.1 311.2 312 311.8C312.6 312 313.6 312.8 314.3 313.5C315.3 314.5 315.6 314.5 316.2 313.1C316.6 312.2 316.9 311.1 316.9 310.7ZM281.9 309.4C283.2 308.1 280.9 308.2 278.4 309.6L275.5 311.2L278.5 310.5C280.1 310.1 281.7 309.6 281.9 309.4ZM327.7 306.7C328.3 304.9 328.9 304.3 328.9 305.3C329 306.2 329.5 307 330 307C330.6 307 331 308 331 309.3C331 310.9 331.3 311.1 331.9 310.1C332.4 309.3 333 309.2 333.4 309.8C334.1 310.9 338 310.2 338 308.9C338 308.5 336.7 307.3 335 306.3C333.4 305.4 332.1 303.9 332.3 303.1C332.4 302.4 331.8 301.5 331 301.3C329.7 300.9 329.7 301 331 301.9C333.4 303.6 330.1 303.3 326.6 301.5C325.1 300.7 323.4 300 323.1 300C321.8 300 322.3 302.9 323.7 303.4C324.4 303.7 325 305.5 325 307.6C325 311.8 325.9 311.4 327.7 306.7ZM205 309C205 308.5 204.3 308 203.5 308C202.7 308 202 308.5 202 309C202 309.6 202.7 310 203.5 310C204.3 310 205 309.6 205 309ZM270.5 309C270.8 308.5 270.6 307.2 270.1 306.3C269.5 305.3 269 305 269 305.7C269 306.3 268.7 307.5 268.4 308.4C267.7 310.1 269.5 310.6 270.5 309ZM279.5 302.9C280 301.5 279.6 300.2 278.6 299.2C277.1 297.7 277 297.9 277 301.3C277 305.3 278.5 306.3 279.5 302.9ZM347 303.1C347 301.1 345.3 299.4 344.3 300.3C343.6 301.1 345 305 346.1 305C346.6 305 347 304.1 347 303.1ZM273 301.8C271.7 301.3 270.5 301.2 270.1 301.5C269.2 302.5 272.2 303.9 273.8 303.2C275 302.8 274.8 302.5 273 301.8ZM358.2 302.6C358.8 303 359 302.8 358.6 302.2C358.3 301.6 358.5 300.8 359.2 300.4C360 299.9 359.8 299.4 358.4 299C355.7 298 355.2 298.5 355.8 301.7C356.1 303.3 356.5 303.9 356.8 303.2C357 302.6 357.7 302.3 358.2 302.6ZM215.8 301.4C217.3 301 218 300 218 298.4C218 297.1 217.5 296 216.9 296C216.4 296 216.2 296.5 216.5 297C216.8 297.6 216.6 298 216.1 298C214.7 298 214.7 295.9 216 292.6C216.5 291.2 216.5 289.8 216 289.5C215.6 289.2 214.9 290.3 214.5 291.9C214.1 293.7 213 295 211.7 295.5L209.5 296.1L211.8 297.2C215 298.8 214.5 300 211.1 298.7C209.6 298.2 208.3 297 208.4 296.1C208.5 295.3 207.8 294.4 206.9 294.2C204.3 293.7 205.1 297.1 207.9 298.3C209.3 298.9 210.9 300 211.3 300.7C212.2 302.2 212.6 302.2 215.8 301.4ZM285.5 298.9C284.7 297.7 282 297.7 282 298.9C282 300 284.2 300.9 285.3 300.3C285.7 300.1 285.8 299.4 285.5 298.9ZM353.8 297.2C353.4 297 353 296.3 353 295.7C353 295 351.5 294.5 349.7 294.4C348 294.3 347 294.5 347.7 294.7C348.4 294.9 348.6 295.8 348.3 296.7C347.9 297.6 348.4 298.8 349.4 299.6C350.9 300.6 351.5 300.6 352.9 299.2C353.8 298.3 354.2 297.4 353.8 297.2ZM271.3 295.3C270.7 293.7 271.5 293.7 274 295C275.6 295.9 276.1 295.6 276.6 293.5C276.9 292.1 278.2 290.3 279.3 289.5L281.4 288H279.2C277.6 288 276.9 287.5 277.1 286.3C277.2 285.3 277.1 282.9 277 281L276.7 277.5L276.1 281.5C275.7 283.7 275.8 286.4 276.3 287.4C277.5 289.9 273.5 293.2 270.3 292.3C267.6 291.7 267.4 292.5 269.7 294.8C271.3 296.4 271.3 296.5 269.7 296.8C267.7 297.2 267.5 298.6 269.3 299.3C270.7 299.8 272 297.1 271.3 295.3ZM283 294.9C283 294.4 282.3 294 281.5 294C280.7 294 280 294.7 280 295.5C280 296.4 280.6 296.7 281.5 296.4C282.3 296 283 295.4 283 294.9ZM288.5 296C288.8 296.5 290 297 291.2 297C292.9 297 293 296.8 292 295.5C291.1 294.5 291.1 294 291.9 294C293.7 294 293.3 287.3 291.4 286.6C288.7 285.6 287.7 285.9 288.9 287.4C289.8 288.5 289.5 289.1 287.5 290.4C285.9 291.5 285 293 285 294.6C285 296.8 285.3 297 286.4 296.1C287.4 295.3 288 295.2 288.5 296ZM343.4 293.2C343 292 342.4 291 341.9 291C340.9 291 340.7 293.1 341.6 295.5C342.5 297.9 344 295.9 343.4 293.2ZM361 295C361 294.5 360.1 294 358.9 294C357.8 294 357.2 293.6 357.5 293C357.8 292.5 357.5 292 356.7 292C354.8 292 354 292.9 354.7 294.6C355.3 296.2 361 296.5 361 295ZM211.6 288.3C211.2 287.9 210.5 288.2 210 289C208.4 291.5 208.9 292.5 210.7 290.7C211.6 289.8 212 288.7 211.6 288.3ZM351.5 290C352.3 287.5 351.4 285.9 349.5 286.6C348.8 286.9 347.2 286.7 346.1 286C343.4 284.6 343.4 285.5 346.3 289C348.9 292.4 350.6 292.7 351.5 290ZM363 288.3C363 287 363.3 287 364.5 288C365.7 289 366.4 289 367.2 288.2C368 287.4 367.9 286.9 366.7 286.4C365.2 285.9 365.2 285.6 366.5 284.3C368.6 282.3 368.4 281 365.9 281C363.7 281 360.7 283.4 361.7 284.4C362.1 284.7 361.9 285 361.3 285C360.7 285 360.2 286.6 360.2 288.5C360.2 291.5 360.4 291.9 361.6 290.9C362.4 290.3 363 289.1 363 288.3ZM255.2 287.8C254.1 286.7 252 287.5 252 289C252 289.4 252.9 289.6 254.1 289.3C255.4 288.9 255.8 288.4 255.2 287.8ZM273.4 286.6C273.1 285.8 272.2 285.4 271.4 285.7C269.7 286.3 270.5 288 272.5 288C273.3 288 273.7 287.4 273.4 286.6ZM260.9 282.8C260.9 281.8 260.7 281.8 260.3 282.7C260 283.6 259.3 283.7 258.1 283C255.6 281.7 254.7 283 256.6 285.1C258 286.6 258.4 286.7 259.6 285.5C260.4 284.8 261 283.5 260.9 282.8ZM287 284.4C287 282.2 286.7 282 285.6 282.9C284.5 283.8 284.1 283.8 283.8 282.8C283.4 281.8 283 281.8 281.7 282.9C280.1 284.2 280.1 284.4 281.7 285.6C284.7 287.9 287 287.3 287 284.4ZM266.5 285C267.6 283.3 266 281.8 264.4 283.1C263.6 283.7 263 284.6 263 285.1C263 286.3 265.7 286.2 266.5 285ZM247.1 281.3C246.2 279.6 246.1 279.6 245.4 281.4C245 282.5 245.2 283.5 246.1 284.1C247.9 285.2 248.5 283.6 247.1 281.3ZM244 277.7C244 276.2 243.8 276.1 242.6 277.2C241.8 277.9 241.4 278.8 241.6 279.2C241.8 279.5 241.5 280 240.8 280.2C240.1 280.5 239.9 281.4 240.4 282.6C241.1 284.4 241.2 284.3 242.5 282C243.3 280.6 243.9 278.7 244 277.7ZM356.1 280.8C355.1 279.7 355 279.8 355.6 281.3C356.1 282.7 355.8 282.9 354.4 282.4C352.8 281.9 352.8 282 354 282.9C356 284.3 357.9 282.5 356.1 280.8ZM268.6 276.8C268.4 273.8 267.7 272.4 266.6 272.2C265.5 272 265 272.6 265 274.2C265 278.1 266.2 281 267.6 281C268.6 281 268.9 279.9 268.6 276.8ZM282 280.1C282 279.5 281.1 279.2 280.1 279.3C279 279.3 278.4 279.8 278.6 280.2C279.3 281.3 282 281.2 282 280.1ZM351 279C350.4 277.9 349.5 277.2 348.9 277.6C348.3 278 348.3 278.7 349.1 279.6C350.8 281.7 352.2 281.3 351 279ZM251.5 276C249.7 272.5 248 272.1 248 275C248 276.7 250 278.3 252.8 278.9C252.9 279 252.4 277.7 251.5 276ZM362.8 276.3C363 275.4 362.3 275.2 360 275.6C357.1 276.2 356.9 276.1 357.5 273.9C358 272 357.7 271.4 356.2 271.3C354.8 271.2 354.3 271.7 354.5 273.3C354.6 274.5 354.8 276.1 354.9 276.8C355 278.5 362.2 278 362.8 276.3ZM259.8 271.8C262.3 272.4 266 271 266 269.6C266 268.9 267.4 267.1 269.2 265.7C271.8 263.5 272.1 262.8 271 261.5C269.4 259.6 267.6 259.5 268.3 261.4C268.7 262.3 268.2 263.1 267.2 263.4C266.3 263.7 264 265.4 262.2 267.1C260.4 268.8 258.3 269.9 257.6 269.7C255.6 268.9 252.6 272.5 253.5 274.7C254.1 276.3 254.3 276.3 256.2 274C257.3 272.6 258.9 271.6 259.8 271.8ZM243.1 268.7C242.3 267.9 242 268.7 242.1 271.6C242.2 275.5 242.2 275.5 243.2 272.7C243.9 270.6 243.9 269.5 243.1 268.7ZM273.8 271.4C272.8 270.4 271 272 271 273.8C271 275.3 271.1 275.3 272.7 273.7C273.6 272.8 274.1 271.8 273.8 271.4ZM283.8 271.3C283.7 270.3 283.9 268.9 284.4 268.2C285.4 266.6 285.2 266.3 281.7 265.5C279.4 264.9 279 265.1 279 267C279 268.2 279.5 270 280 271.1C281.3 273.5 284.2 273.6 283.8 271.3ZM290 271C290 270.5 289.1 269.6 288 269C285.8 267.8 285.7 268 286.6 270.4C287.3 272.1 290 272.6 290 271ZM253 267.2C253 264.8 252.9 264.7 251.6 266.5C250.8 267.6 250.4 269 250.7 269.7C251.5 271.7 253 270.1 253 267.2ZM343 268.4C343 267.6 342.6 267 342 267C341.5 267 341 267.9 341 269.1C341 270.2 341.5 270.8 342 270.5C342.6 270.2 343 269.2 343 268.4ZM368 265C368 264.4 362.1 262 360.7 262C359.4 262 361.2 264.9 362.8 265.3C365.2 265.8 368 265.7 368 265ZM249.2 261.5C249.8 258.6 249.2 258.3 247.4 260.8C245.7 263 245.7 264 247.4 264C248.1 264 249 262.9 249.2 261.5ZM262.9 262.4C264.9 263.7 266.2 261.9 264.3 260.4C262.2 258.9 260.6 258.6 261.5 259.9C261.8 260.4 261.6 261.1 261 261.5C260.5 261.8 260 262.7 260 263.3C260 264.1 260.3 264 260.9 263.1C261.4 262.4 262.3 262.1 262.9 262.4ZM294.4 262.4C296 261.8 296.7 259 295.2 259C294.8 259 293.7 259.9 292.7 261C291 263 291.6 263.5 294.4 262.4ZM258.6 260.3C260.4 257.9 260.3 257 258.5 257C257.7 257 257 257.5 257 258C257 258.6 256.6 258.9 256.1 258.8C255.2 258.5 255 259 255 261C255 262.6 257.2 262.2 258.6 260.3ZM283.5 261C283.8 260.5 283.2 260 282.1 260C280.9 260 280 260.5 280 261C280 261.6 280.6 262 281.4 262C282.2 262 283.2 261.6 283.5 261ZM217 256C217 255 216.4 253.7 215.6 253.1C214.5 252.1 214 252.3 213.5 253.9C213.2 255.1 213.2 256.9 213.5 258.1C214 259.7 214.5 259.9 215.6 258.9C216.4 258.3 217 257 217 256ZM325 257C325 256 324.3 254.7 323.5 254C322.2 253 321.6 253 320.1 254.4C318.3 256.1 318.3 256.3 319.8 257.9C321.9 260 325 259.4 325 257ZM278.7 255.4C279 255.7 279.9 255.5 280.6 254.9C281.5 254.1 281.5 253.3 280.3 251C278.4 247.1 276.8 246.2 277.1 249.2C277.5 253.5 277.1 255 275.5 254.4C274.7 254 274.3 253.4 274.6 252.9C274.9 252.4 274.4 252.3 273.6 252.6C272.7 252.9 272 253.8 272 254.5C272 255.2 271.7 256.6 271.3 257.6C270.7 259.1 271.2 259.1 274.4 257.1C276.4 255.8 278.4 255 278.7 255.4ZM360 256C360 254.9 359.4 254 358.6 254C356.8 254 355.7 255.6 356.5 257C357.6 258.8 360 258.1 360 256ZM256 255C256 254.5 254.5 254.1 252.8 254.1L249.5 254.2L252.5 255C254.2 255.4 255.6 255.8 255.8 255.9C255.9 255.9 256 255.6 256 255ZM316.4 254.9C316.2 254.5 316.5 254 317.2 253.8C318.2 253.4 319.4 250 318.5 250C317.6 250 313.1 254.7 313.5 255.2C314.3 256 317 255.7 316.4 254.9ZM299.9 252.6C301.1 251.2 300.4 248 298.9 248C298.4 248 296.9 249 295.5 250.2C293.6 251.8 293.3 252.6 294.2 253.2C296.2 254.4 298.6 254.2 299.9 252.6ZM259.7 248.9C260 247.9 260.6 247 261.1 247C261.6 247 262 246.3 262 245.5C262 244.6 262.7 243.7 263.5 243.4C265.4 242.6 265.5 239.4 263.6 238.3C262.8 237.9 262 236.6 261.7 235.5C261.5 234.4 261.2 236.3 261.1 239.7C261 244.5 260.6 246.2 259.2 247.2C258.1 247.9 256.8 249.5 256.1 250.8C254.9 253 255 253.1 257 252C258.3 251.3 259.5 249.9 259.7 248.9ZM266.6 248.5C266.9 247.1 267.6 246 268.2 246C268.7 246 268.8 245.6 268.5 245C267.2 242.9 266.4 243.7 263.2 250.3C263 250.7 263.5 251 264.4 251C265.3 251 266.2 249.9 266.6 248.5ZM275.6 246.2C274.5 245.2 274.1 246.6 274.8 249L275.5 251.5L275.8 249.2C276 247.9 275.9 246.6 275.6 246.2ZM254.2 247.5C254.5 247.8 255 247.4 255.3 246.6C255.6 245.8 255.2 244.6 254.4 243.9C253.6 243.3 252.7 241 252.4 238.9C252 236.8 251.4 235.3 251 235.5C250.5 235.8 250.3 236.8 250.5 237.8C251.8 244.2 252.1 245 253.2 244.4C253.9 244 254 244.1 253.6 244.8C252.5 246.6 250.2 246.2 249.1 244.3C248.1 242.6 248.1 242.6 248 244.3C248 245.2 248.5 246.9 249.2 248C250.3 249.7 250.6 249.8 252 248.5C252.9 247.7 253.9 247.2 254.2 247.5ZM229.4 247.4C230.3 245.2 230.2 245 228.5 245.6C227.7 246 227 246.8 227 247.6C227 249.5 228.6 249.4 229.4 247.4ZM288 248C289.8 246.9 289.3 246.4 285.7 245.5C283.7 245 283 245.2 283 246.2C283 249 285.2 249.8 288 248ZM217 244C217 242.9 216.6 242 216 242C215.5 242 215 242.9 215 244C215 245.1 215.5 246 216 246C216.6 246 217 245.1 217 244ZM299 244C299 241.8 298.7 241.7 295.3 242.6C291.9 243.5 292.4 246 296 246C298.3 246 299 245.6 299 244ZM229.5 242.3C230.1 242.2 231.4 241.8 232.5 241.4C234.3 240.7 234.4 240.8 233.1 242.6C231.7 244.3 231.8 244.4 233.2 243C234.1 242.2 235.1 240.4 235.5 239.1C236.1 237.1 235.9 236.8 234.5 237.3C233.6 237.7 232.5 238 232 238C231.6 238 231 239 230.6 240.2C230.2 241.9 229.8 242.2 228.9 241.3C228.3 240.7 227 240.5 225.9 240.7C224.1 241.2 224 241.3 225.7 242.5C226.7 243.2 227.7 243.5 228 243.2C228.3 242.8 229 242.4 229.5 242.3ZM291.4 242.4C291.8 241.4 291.5 241 290.8 241.2C289.3 241.7 288.5 244 289.8 244C290.3 244 291.1 243.3 291.4 242.4ZM372 242.9C372 242.3 371.3 242 370.5 242.4C369.5 242.7 369 242.3 369 241.3C369 240.4 368.7 239.9 368.4 240.3C368 240.6 368 241.6 368.3 242.5C369 244.2 372 244.6 372 242.9ZM287.3 240.6C287.6 239.8 287.2 238.6 286.4 238C285.6 237.3 285 237.1 284.9 237.6C284.9 238.1 284.7 239.3 284.5 240.3C284.1 242.3 286.5 242.6 287.3 240.6ZM325.1 238.6C324.3 236.7 323.4 236 321.3 236H318.5L321.9 239C325.8 242.5 326.5 242.4 325.1 238.6ZM270.8 238.6C271.1 237.4 270.7 236.9 269.8 237.2C269.1 237.5 268.3 238.5 268.2 239.4C267.9 240.6 268.3 241.1 269.2 240.8C269.9 240.5 270.7 239.5 270.8 238.6ZM309.5 238.1C308.7 235.6 307.7 235.4 306 237.5C305 238.8 305.1 239 306.9 239C308 239 309 239.5 309 240.2C309 240.8 309.3 241.1 309.6 240.7C309.9 240.4 309.9 239.2 309.5 238.1ZM219.1 235.3C218.5 234.3 218 234 218 234.5C218 235.1 217.5 234.8 217 234C216.4 233.1 216 233 216 233.7C216 234.3 216.5 235.2 217 235.5C217.6 235.8 218 237.1 218 238.3C218.1 240.3 218.2 240.3 219.1 238.8C219.8 237.6 219.8 236.4 219.1 235.3ZM227.3 236C227 234.9 226.4 234 225.9 234C224.3 234 223.6 237.2 225.1 238C227 239.2 227.9 238.3 227.3 236ZM281.7 237.3C282.4 235.4 278 233.6 276.6 235.1C275.8 236 275.8 236.1 276.7 235.6C277.4 235.2 278.1 235.8 278.5 237C279.2 239.2 281.1 239.3 281.7 237.3ZM258.5 232.3C257.8 228 257.7 227.7 256.9 229.9C255.8 232.7 256.1 236.2 257.5 237.2C259.1 238.3 259.3 237.3 258.5 232.3ZM212.6 235.5C212.3 234.7 212.7 233.4 213.6 232.6C214.5 231.7 214.6 230.9 214 230.5C213.5 230.2 212.5 231.1 212 232.5C210.7 235.9 210.7 237 212.1 237C212.7 237 213 236.3 212.6 235.5ZM266.6 234.5C266.7 233.7 266.5 233 266.1 233C264.7 233 264.1 234.2 264.7 235.6C265.3 237.3 266.3 236.7 266.6 234.5ZM230 233C230 231.4 229.6 230 229.2 230C228.7 230 228.5 231.4 228.8 233C229 234.7 229.4 236 229.6 236C229.8 236 230 234.7 230 233ZM234.5 233.1C234.2 232.1 234.4 230.1 234.9 228.7C235.8 226.5 235.6 225.9 234 225C231.3 223.6 231.2 223.6 231.4 228C231.4 230.2 231.8 232 232.2 232C232.7 232 233 232.7 233 233.5C233 234.3 233.5 235 234.1 235C234.7 235 234.9 234.2 234.5 233.1ZM272.4 233.4C273.4 230.8 273.1 230 271.1 230C269.7 230 269.4 230.6 269.8 232.5C270.3 235.3 271.5 235.8 272.4 233.4ZM373 234C373 233.5 372.4 233 371.6 233C370.8 233 369.8 233.5 369.5 234C369.2 234.6 369.8 235 370.9 235C372.1 235 373 234.6 373 234ZM256 228.4C256 227.7 255.6 226.8 255 226.5C254 225.9 251 232 251.7 233.3C252.3 234.3 256 230.1 256 228.4ZM283.1 230.7C282.3 229.9 282 230 282 231.1C282 233.1 283.3 234.5 283.8 233C284.1 232.3 283.7 231.3 283.1 230.7ZM305 232.6C305 231.8 304.1 230.2 303.1 228.9C301.5 227 300.9 226.8 299.9 227.7C298.9 228.7 299.1 229.5 301 231.5C303.6 234.3 305 234.7 305 232.6ZM328.7 230.3C328.4 230.1 327.4 230 326.4 230.2C324.8 230.5 324.8 230.6 326.6 232.4C328.4 234.2 328.5 234.2 328.8 232.6C329 231.6 328.9 230.6 328.7 230.3ZM291.4 231.1C292.3 229.7 289.5 226.8 287.6 227.1C286 227.5 286 227.6 287.7 229.7C289.6 232.1 290.6 232.5 291.4 231.1ZM358 229C355.9 227.6 355 227.8 355 229.4C355 231.2 357.2 232.1 358.5 230.8C359.1 230.2 359 229.6 358 229ZM224.6 224.8C223.9 224.3 224.1 224 225.1 224C228.7 224 227.9 217.2 223.9 212.7C221.8 210.4 221.4 211.5 221.2 219.9C221.1 223.5 220.6 226.8 220 227.4C217.8 229.6 219.2 229.8 222.4 227.7C224.5 226.3 225.3 225.2 224.6 224.8ZM317.6 228.7C318 228.3 317.6 228 316.7 228C315.8 228 315 227.6 315 227.1C315 226.6 313.4 225.9 311.5 225.6C309.6 225.2 308 224.7 308 224.4C308 222.8 310.3 220 311.5 220C312.8 220 312.8 219.7 311.8 218C309.8 214.8 308 215.6 308 219.5C308 221.4 307.6 223 307 223C306.5 223 306 223.7 306 224.5C306 225.4 307 226 308.6 226C310.6 226 311 226.4 310.6 227.8C310.1 229.4 310.5 229.7 313.4 229.6C315.3 229.5 317.2 229.1 317.6 228.7ZM239 225.4C239 221.2 238.1 219 236.4 219C234.7 219 234.5 221.6 236.1 222.6C236.7 222.9 237 224.5 236.8 226C236.5 227.7 236.8 228.7 237.7 228.7C238.5 228.7 239 227.4 239 225.4ZM280.9 224.1C280.1 222.4 279.1 221 278.7 221C278.2 221 278.1 221.4 278.4 221.9C278.7 222.3 279.4 224 280 225.5C280.6 227 281.3 228 281.6 227.7C282 227.4 281.6 225.7 280.9 224.1ZM363.4 224.1C362.6 223.2 361.2 225.3 361.7 226.7C362.3 228.2 362.4 228.1 363 226.4C363.4 225.4 363.6 224.3 363.4 224.1ZM299.4 224.9C298.6 223.5 297 223.9 297 225.5C297 226.4 297.6 226.7 298.5 226.4C299.3 226 299.7 225.4 299.4 224.9ZM232.5 223C235.1 223 233.8 219.8 230.8 218.7C228.9 218 228.2 220 228.9 223.9C229.2 225.9 229.4 226 230.2 224.6C230.7 223.7 231.8 223 232.5 223ZM268.4 222.6C267.8 221.2 265.1 219.6 264.3 220.3C263.4 221.3 265.4 224 267.1 224C268.3 224 268.7 223.5 268.4 222.6ZM244.3 218.8C243.4 216.8 243.3 216.8 243.3 219.8C243.3 222 243.7 222.7 244.3 222.1C245 221.4 245 220.3 244.3 218.8ZM255.8 218.8C255.7 216.3 254.9 213.9 253.8 212.8C252.3 211.3 252 211.3 252 212.5C252 214.6 249 214.4 248.9 212.3C248.9 211.2 248.6 211 248.3 211.8C248.1 212.4 247.2 213 246.4 213C245.6 213 245 213.5 245 214.1C245 215.6 247.2 217.5 248.9 217.5C249.7 217.5 250.5 218.1 250.8 218.9C251.1 219.7 250.8 220 250.1 219.6C249.5 219.2 249 219.3 249 219.8C249 220.4 249.7 221 250.5 221.4C251.4 221.7 252 221.4 252 220.5C252 218.3 253.7 218.7 254.3 221C255.2 224.4 256 223.2 255.8 218.8ZM305 220.8C305 219.7 304.3 219 303.1 219C302.1 219 300.9 218.3 300.6 217.4C300.3 216.6 299.6 216.2 299 216.5C297.7 217.3 301.7 222.7 303.6 222.7C304.4 222.7 305 221.8 305 220.8ZM283.8 216C283 211.3 283.1 210.4 284.6 209.3C285.6 208.6 287.2 208.2 288.1 208.5C290.7 209.3 293.5 203.3 291.7 201.1C290.9 200.2 290 198.7 289.7 197.8C289.3 196.8 288.6 196 288 196C286.4 196 286.8 198.7 288.5 199.4C290.4 200.1 290.4 203.9 288.5 204.6C287.7 205 287.3 205.7 287.6 206.2C288.1 206.9 287.7 206.9 286.4 206.2C285.3 205.6 283.7 205.5 282.3 206.1C278.2 207.6 277 206.3 277 200.3C277 197.3 276.6 195.1 276.1 195.4C275.6 195.7 275.4 196.9 275.7 197.9C276 198.9 275.7 200.7 275.1 201.8C274.3 203.4 274.3 204.2 275.5 205.4C276.3 206.2 277 207.2 277 207.7C277 208.1 278.2 209.6 279.5 210.9C280.9 212.2 282 214 282 215C282 217.2 283.9 222.5 284.4 221.9C284.7 221.7 284.4 219 283.8 216ZM327.6 220.5C326.5 219.7 325.1 219 324.6 219.1C324 219.1 324.1 219.4 324.8 219.7C325.4 219.9 325.8 220.6 325.4 221.1C325.1 221.6 325.9 222 327.2 222C329.4 221.9 329.4 221.9 327.6 220.5ZM293 217.7C293 215.7 293.7 214.1 294.8 213.4C295.7 212.8 296.6 211.1 296.8 209.7C296.9 207.7 296.6 207.3 295 207.7C293.9 208 293 209.1 293 210.1C293 211.2 292.1 212.8 291 213.7C288.9 215.5 288.3 218 290 218C290.6 218 290.9 218.3 290.9 218.8C290.6 220.2 291 221 292 221C292.6 221 293 219.5 293 217.7ZM273 217.5C273 214.5 271.5 214.2 270 216.9C268.6 219.6 268.7 220 271 220C272.5 220 273 219.3 273 217.5ZM216.6 214.3C215.5 213.2 214.7 214.9 215.5 216.7C216.3 218.4 216.3 218.4 216.7 216.7C217 215.7 216.9 214.6 216.6 214.3ZM316.7 215.5C316.7 214.9 315.5 214.4 314.1 214.3C312.6 214.3 312.3 214.4 313.3 214.7C314.2 214.9 314.8 215.5 314.6 215.9C314.3 216.3 314.7 216.7 315.4 216.7C316.1 216.7 316.7 216.2 316.7 215.5ZM227.7 208.8C227.5 207.5 227.3 208.3 227.3 210.5C227.2 212.7 227.4 213.7 227.7 212.8C227.9 211.8 227.9 210 227.7 208.8ZM266.7 210.9C269.9 206.8 271.1 203.2 269.7 202.3C267.6 201 264 201.2 264 202.7C264 203.4 264.6 204 265.4 204C267.5 204 268.2 206.9 266.7 209.1C265.9 210.1 265 210.7 264.7 210.4C263.9 209.6 261 211.8 261 213.1C261 214.8 264.9 213.3 266.7 210.9ZM275 212C273.5 210.9 272.4 210.5 272.1 211.2C271.7 212.4 273.8 214 276 214C277 214 276.7 213.3 275 212ZM205.5 209.8C206.1 209.4 205.5 209 204.3 209C202.7 209 202.2 209.4 202.7 210.5C203 211.4 203.5 211.7 203.9 211.3C204.2 210.9 205 210.2 205.5 209.8ZM252.7 208.2C252.6 206.8 251.9 206.4 250 206.6C245.6 207 245.4 207.1 248.5 208.5C252.5 210.4 252.9 210.3 252.7 208.2ZM216.5 204.7C214.5 203.6 213.8 204.2 214.6 206.4C215.1 207.7 215.5 207.8 216.7 206.9C217.9 205.8 217.9 205.5 216.5 204.7ZM136.2 205.1C135.1 204.4 135.1 204 136.4 202.7C137.3 201.9 138 200.2 138 199.1C138 198 139.2 196.3 140.8 195.2C144.4 192.7 148 191.5 148 193C148 193.7 148.5 193.6 149.4 192.8C150.2 192.1 150.6 191.2 150.3 190.8C149.5 189.4 149.1 186 149.8 186.1C152.5 186.5 153.2 186 152 184.5C150.3 182.4 151.5 181.4 153.6 183.1C155.2 184.4 155.2 184.3 154 182C153.3 180.7 152.2 179 151.5 178.4C150.9 177.8 148.9 175.4 147 173.2C144.8 170.5 143.2 169.4 142.5 170C141.9 170.5 140.9 170.5 140 169.8C138.8 169 138.8 168.9 140.3 169.4C142.9 170.2 142.4 169 138.1 164C135.9 161.4 133.8 159.9 133.4 160.4C132.9 160.9 133.1 161.5 133.8 161.7C134.4 162 135 162.8 135 163.6C135 164.4 135.5 165 136.1 165C136.6 165 136.9 165.4 136.6 165.9C135.7 167.3 130.8 165.9 131.4 164.4C131.7 163.6 131.5 163 130.9 163C129.8 163 129.9 163.6 131.6 169.8C132.5 172.9 129.7 171.8 128.2 168.4C127.5 167.1 126.6 166 126 166C124.6 166 124.8 167.9 126.4 169.6C128 171.1 127.4 174.9 125.6 175.1C125 175.2 122.3 175.2 119.5 175.1C115.5 175 114.9 175.2 116.3 176C117.2 176.6 118 177.5 118 178C118 179.5 115 179.2 115 177.8C114.9 177 114.4 177.2 113.6 178.3C112.9 179.2 111.8 180 111.1 180C110.5 180 110 179.2 109.9 178.3C109.9 177.2 109.6 177 109.3 177.8C109.1 178.4 108.4 178.8 107.9 178.4C107.4 178.1 107 178.5 107 179.2C107 180 106.5 179.8 105.9 178.8C104.5 176.2 103 176.6 103 179.5C103 182.3 100.9 182.8 99.0001 180.5C98.0001 179.3 98.0001 179 99.1001 178.9C99.9001 178.9 99.4001 178.4 98.1001 177.9C95.4001 176.8 95.5001 176.8 94.6001 179.5C93.8001 182.3 95.2001 184.1 98.9001 184.9C100.7 185.2 102.2 186 102.3 186.5C102.5 187.9 106.2 191.5 108.4 192.3C109.9 192.9 110 193.3 109 194.5C108.4 195.3 108 196.5 108.3 197.2C108.7 198 109.1 197.7 109.5 196.3C109.9 195 110.6 193.9 111.1 193.9C111.6 193.8 112.4 193.7 112.9 193.6C113.4 193.6 114.2 193.2 114.6 192.7C115.5 191.8 120 196.7 120 198.6C120 199.3 119.2 200.4 118.3 200.9C116.8 201.7 117.2 201.9 120.2 202C122.2 202 125.1 202.5 126.7 203.1C128.6 203.8 129.6 203.8 129.8 203.1C130.4 201.2 133.7 201.9 134.3 204C134.6 205.1 135.4 206 136.2 206C137.3 206 137.3 205.8 136.2 205.1ZM300 203.7C300 202.2 299.1 200.8 297.5 200C294.3 198.3 293.4 199.2 295.4 202.2C296.3 203.6 296.7 205 296.3 205.3C296 205.7 296.6 206 297.8 206C299.4 206 300 205.4 300 203.7ZM227.4 202.7C227.3 201.7 227.2 200.3 227.1 199.5C226.9 197.2 225.4 197.7 224.2 200.5C222.5 204.2 222.7 205 225.3 204.6C226.6 204.4 227.5 203.6 227.4 202.7ZM235.9 202.8C236.8 200.3 236.2 198.3 235 199.7C233.6 201.2 232.8 205 234 205C234.6 205 235.4 204 235.9 202.8ZM375.5 202.1C373.7 201.4 370 201.7 370 202.6C370 202.8 371.7 203 373.8 202.9C376.6 202.9 377 202.7 375.5 202.1ZM321.9 201.1C322.8 200.5 322.9 200.1 322.1 199.5C320.6 198.7 318 199.6 318 201C318 202.2 320 202.3 321.9 201.1ZM304 199.2C304 196.9 301.5 193.4 300.7 194.6C300.4 195.1 300.4 196.7 300.7 198.3C301.3 201.3 304 202.1 304 199.2ZM256 197.4C257.5 193.6 257.2 193.1 254.5 194.3C253.1 195 252.2 196.1 252.5 196.8C252.8 197.6 253 198.6 253 199.1C253 201 255.1 199.9 256 197.4ZM265 199.4C265 198.3 262.2 196.1 261.6 196.7C260.3 198 261.1 200 263 200C264.1 200 265 199.7 265 199.4ZM249.8 196.4C249.9 195 249.6 194.1 249.1 194.4C248.4 194.9 248.3 196.7 248.9 198.8C249.2 199.7 249.6 198.6 249.8 196.4ZM363 198C361.2 196.8 358.7 196.7 359.4 197.8C359.6 198.2 360.9 198.6 362.2 198.7C364 198.9 364.1 198.7 363 198ZM153 196.6C153 195.1 151.2 193.5 150.4 194.3C149.7 195 151.1 198 152.1 198C152.6 198 153 197.4 153 196.6ZM295.9 194.3C296.6 192.8 297.6 192 298.5 192.4C300.7 193.2 301.4 191.2 299.5 189.4C298.3 188.2 298.2 187.5 299.1 186.4C299.8 185.6 299.8 185 299.2 185C298.7 185 298 183.9 297.8 182.6C297.4 180.8 298 179.6 299.7 178.2L302 176.3L298.3 176.6C296.2 176.7 293.9 176.8 293.1 176.9C292.2 177 292 177.8 292.4 179.7C292.9 181.4 292.7 182.6 291.8 183.1C291.1 183.5 290.9 184.2 291.3 184.6C291.6 185 292.6 184.7 293.5 184C294.7 183 295.1 183.2 296 185.5C297.1 188.4 296.6 190 294.5 190C293.8 190 292.9 190.8 292.6 191.8C292.3 192.8 292.2 192.4 292.3 191C292.5 189.1 292 188.4 290.3 188.2C288.6 187.9 288.3 188.3 288.7 189.9C289 191 290 192.6 291 193.5C292 194.4 292.6 195.8 292.3 196.6C291.3 199.1 294.7 197.1 295.9 194.3ZM243.3 191C242.6 190.2 241.1 193.4 241.7 194.4C242.1 194.9 242.7 194.5 243 193.4C243.4 192.4 243.6 191.3 243.3 191ZM263.6 194C264.2 194.6 264.5 193 264.4 189.9C264.4 186.7 263.8 184.5 262.9 183.9C261.3 182.9 260.1 185.8 261.8 186.9C263.6 188.1 262.8 191.1 260.6 190.9C257.2 190.7 256.9 190.9 258 193C258.8 194.6 259.5 194.8 260.9 194.1C262 193.5 263.1 193.5 263.6 194ZM269.6 192.8C269.3 191.5 269 189.7 269 188.8C269 187.8 268.6 187 268.1 187C267.5 187 267.2 188.8 267.2 191C267.2 193.9 267.7 195 268.7 195C269.8 195 270.1 194.4 269.6 192.8ZM365 193.6C365 191.6 362.4 190.9 361 192.5C360.2 193.5 360.2 193.9 361.2 194.3C363.6 195.3 365 195 365 193.6ZM372.1 193.8C372 193.3 372 192.1 372 190.9C372 188.8 372 188.8 370.1 191.1C369 192.4 368.4 193.9 368.7 194.3C369.3 195.3 372.1 194.8 372.1 193.8ZM277.3 191.6C278 189.8 276.2 188 274.4 188.7C272.3 189.5 272.7 193 274.9 193C275.9 193 277 192.4 277.3 191.6ZM335.4 188.9C334.6 187.5 332 187.8 332 189.3C332 190.1 332.3 191 332.7 191.3C333.6 192.2 336.1 190 335.4 188.9ZM281.8 189.1C282.8 188.5 282.7 187.8 281.1 185.9C278.8 183 278 183.5 278.7 187.3C279.3 190.2 279.7 190.5 281.8 189.1ZM320 187.6C320 186.8 318.7 186 317 185.8C315 185.5 314 185.8 314 186.6C314 187.7 314.9 188.1 319.3 188.9C319.7 188.9 320 188.4 320 187.6ZM236.1 182.7C235.3 181.9 235 182.3 235 184.1C235 187.4 236.4 188.8 236.8 186C237 184.8 236.7 183.3 236.1 182.7ZM227.3 186.1C227.7 186 228 185.5 228 184.9C228 184.4 227.6 184.1 227.1 184.4C226.6 184.8 226 184.5 225.8 184C225.6 183.4 224.7 183.9 223.8 185C222.1 186.9 222.1 187 224.3 186.6C225.5 186.3 226.8 186.1 227.3 186.1ZM340.8 184.9C341.1 184.1 340.9 183.8 340.5 184.2C340.1 184.6 338.9 184.5 337.9 183.9C336.4 183.2 336 183.3 336 184.4C336 187.1 340 187.5 340.8 184.9ZM362.3 185C362.7 183.4 362.3 183.1 360.4 183.2C357.7 183.5 357.4 184 359.2 185.8C360.9 187.5 361.7 187.3 362.3 185ZM287.8 182.3C288.6 180.4 288.7 179.3 288 178.6C287.3 177.9 286.8 178.2 286.4 179.8C286 181.2 285 182 283.7 182C281.7 182 281.7 182 283.6 183.5C286.2 185.4 286.3 185.4 287.8 182.3ZM170.6 179.6C170.9 176.4 168.8 172.8 167.8 174.7C166.8 176.5 167.1 181.4 168.1 182.7C169.6 184.5 170.2 183.8 170.6 179.6ZM278 176.7C277.4 175 275.4 172.4 273.6 171C271.7 169.6 270.4 168.2 270.7 167.8C271.5 166.3 269.1 167 267.5 168.6C266.6 169.5 266.1 170.9 266.4 171.6C266.7 172.4 266.4 173 265.8 173C265.2 173 264.9 173.2 265.2 173.5C265.5 173.8 266.8 173.6 268.2 173.1C270.3 172.3 271.1 172.7 273.8 175.6C277 179.1 278 182 275.9 182C275.4 182 275.2 182.5 275.5 183.1C276 183.7 276.8 183.4 277.7 182.1C278.8 180.4 278.9 179.3 278 176.7ZM222 181.1C222 179.6 218.8 176 217.9 176.6C217.4 176.9 217.2 177.5 217.5 178C217.8 178.5 217.2 179.5 216 180.2C213 182.1 213.5 182.6 218 182.2C220.2 182 222 181.5 222 181.1ZM307 182.3C306.2 182 305.2 181.3 304.9 180.7C304.5 180.2 303.7 180.1 303.1 180.4C301 181.8 302 183 305.3 182.9C307 182.9 307.8 182.6 307 182.3ZM320 181.5C321.4 180.2 322.2 180.1 324.4 181.1C327.1 182.4 329.4 181.5 327.1 180.1C326.1 179.5 326.2 179.1 327.5 178.6C328.4 178.3 328.8 177.6 328.5 177C328.1 176.3 327.3 176.3 326 177C323.2 178.5 323.1 178.4 323.5 173.5C323.6 171 323.4 169 322.9 169C322 169 321.6 170.4 321.9 172.7C322 173.3 321.1 174.1 320 174.5C317.9 175.2 317.1 177.2 319.1 176.8C321.2 176.3 321.2 178.8 319.1 180.9C316.7 183.3 317.5 183.8 320 181.5ZM160.8 179.9C162 178.1 161.9 177.9 160.3 178.2C159.3 178.4 158.4 179.3 158.2 180.3C157.7 182.6 159.2 182.4 160.8 179.9ZM228.5 179.9C228.9 178.8 228.9 177.6 228.6 177.3C228.3 176.9 228 177.4 228 178.3C228 179.3 227.3 180 226.5 180C225.7 180 225 180.5 225 181C225 182.9 227.9 182 228.5 179.9ZM274 180.5C274 179.7 273.3 179 272.5 179C270.9 179 270.5 180.2 271.7 181.3C272.8 182.5 274 182.1 274 180.5ZM340 181.3C340 180.9 339 179.6 337.9 178.4L335.7 176.1L333.9 178.4C331.3 181.7 331.5 182 336 182C338.2 182 340 181.7 340 181.3ZM309.3 178C309.6 176.9 310.5 176 311.3 176C312.3 176 312.6 175.2 312.2 173.5C311.7 170.6 309 170.1 309 172.9C309 174 308.5 175.2 307.8 175.6C307.1 176 307 175.9 307.4 175.2C307.8 174.5 307.7 174 307.1 174C305.4 174 304.6 178.2 306.1 179.1C308.2 180.4 308.7 180.2 309.3 178ZM369 178C369 176.9 368.3 176 367.5 176C366.7 176 366 176.9 366 178C366 179.1 366.7 180 367.5 180C368.3 180 369 179.1 369 178ZM262.7 175.6C262 173.8 259 173.4 259 175C259 175.6 259.6 176.7 260.3 177.5C261.8 179.1 263.5 177.8 262.7 175.6ZM154.1 176.2C153.5 175 153.6 173.7 154.6 172C155.3 170.6 156 170.1 156.1 170.8C156.2 171.4 156.3 172.5 156.4 173C156.4 173.6 157 174 157.5 174C158.6 174 158.7 173.6 158.9 168.9C159 166.9 159.4 166 160.3 166.3C161 166.5 161.4 168.1 161.3 170.3C161 174.1 161.5 174.6 163.9 173.1C164.9 172.5 164.9 171.8 164.1 170.2C163.5 169.1 163.2 167.5 163.5 166.8C163.8 166 162.6 164.7 160.3 163.5C158.2 162.4 153.6 159.8 150.1 157.6C146.5 155.5 141.7 153.1 139.3 152.3C136.9 151.5 135.3 150.4 135.6 149.9C135.9 149.4 135.4 149 134.6 149C133.8 149 132.9 149.4 132.5 149.9C132.2 150.4 130.6 151.1 129 151.5C127.3 151.9 126 152.6 126 153.1C126 154.5 128.8 154.2 131.6 152.4C134.7 150.3 137.2 151.9 135 154.5C133.8 156 134.5 157.1 141.3 163.5C145.5 167.5 149 171 149 171.3C149 171.9 154.3 178 154.8 178C154.9 178 154.6 177.2 154.1 176.2ZM202.9 177.1C203.8 176.5 203.9 176 203.1 175.6C201.8 174.8 200 175.7 200 177.1C200 178.2 201.1 178.2 202.9 177.1ZM363 177.6C363 176.1 358.9 168 358.1 168C356 168 355.9 171.5 358 173C359.4 174 359.9 175.2 359.4 176.3C359 177.6 359.3 178 360.9 178C362.1 178 363 177.8 363 177.6ZM284 175.3C284 174.4 284.7 172.9 285.5 172C286.9 170.4 286.8 170.3 284.3 170.4C281.5 170.5 280.3 172.6 281.4 175.6C282.1 177.5 284 177.4 284 175.3ZM333 173.1C333 171.9 331 170.6 330.3 171.3C329.6 172 330.9 174 332.1 174C332.6 174 333 173.6 333 173.1ZM318.7 169.5C318.5 165.2 317.8 165.1 316.3 169C315.7 170.7 315.5 171.8 316 171.5C316.5 171.2 317.1 171.4 317.5 172C318.6 173.7 318.9 173.1 318.7 169.5ZM344.5 170C344.7 170 346 170.4 347.3 170.9C349.5 171.8 349.7 171.6 349.3 169.9C348.9 168.6 348.1 168 347 168.3C346.1 168.5 344.5 168.1 343.5 167.4C341.8 166.1 342.1 166 346.1 166C348.9 166 350 165.7 349.1 165.1C348.1 164.4 348 163.8 349 162C350 160.2 350.8 159.9 353.3 160.3C355.1 160.6 357.3 161.2 358.3 161.6C360 162.2 360 162 359 160.4C358.1 159 356.7 158.5 352.9 158.5C348.2 158.5 348 158.4 348 155.7C348 153.8 348.4 153.1 349.2 153.6C351 154.8 356 155.1 356 154.1C356 152.8 348.8 148.7 346.8 148.8C345.8 148.8 345 148.2 345 147.4C345 146.6 344 146 342.7 146C339.7 146 338.7 147 340.1 148.7C340.7 149.4 341 151.3 340.7 152.8C340.3 154.8 340.6 156.1 341.9 157.2C344.5 159.4 344.1 164.4 341.4 164.8C339.5 165.1 339.4 165.4 340.3 168.9C341.2 172.2 341.6 172.6 342.7 171.4C343.5 170.6 344.3 170 344.5 170ZM187.5 171C188.6 169.3 187 167.8 185.4 169.1C184.7 169.7 184.3 170.6 184.6 171.1C185.3 172.3 186.7 172.2 187.5 171ZM303 167.9C303 166.5 300.3 166.9 299.7 168.4C299.3 169.4 299.7 169.6 301.1 169.3C302.1 169 303 168.4 303 167.9ZM122 167.6C122 166.8 122.6 165.9 123.3 165.7C123.9 165.4 122.4 165.1 119.8 165.1C117.1 165 115 164.6 115 164C115 163.5 113.2 163 110.9 163C108.4 163 107.1 163.4 107.5 164C107.9 164.6 108.5 164.8 109 164.5C110.3 163.7 117.8 166 119.1 167.7C120.6 169.4 122 169.4 122 167.6ZM100.8 165.4C101.1 166.9 104 166.5 104 165C104 162.3 94.7001 163.8 93.6001 166.7C93.3001 167.5 94.5001 167.2 96.8001 166C99.9001 164.3 100.6 164.2 100.8 165.4ZM324 166.6C324 165.1 321.6 163.8 320.6 164.7C319.9 165.4 321.9 168 323.1 168C323.6 168 324 167.4 324 166.6ZM258.3 166.3C257.6 166.1 257 165 257 163.9C257 162.9 256.6 162 256 162C255.5 162 255.3 161.2 255.6 160.3C256.1 158.8 256 158.7 255.1 160C254.2 161.3 254 161.1 254 159.3C254 156.9 256.2 155 256.8 156.8C257.2 158.2 259 158.4 259 157.1C259 156.6 258.2 155.9 257.2 155.6C255 154.9 254.6 151.1 256.6 150.3C258.5 149.6 258.4 148 256.4 148C254 148 252.5 150.2 252.4 154C252.3 156.3 251.6 157.9 250.2 158.8C249.1 159.5 248.4 160.8 248.7 161.6C249.4 163.5 252 163.4 252 161.4C252 160.6 252.5 160.2 253 160.5C253.6 160.9 253.7 161.6 253.4 162.2C253 162.9 253.2 163 253.8 162.6C254.5 162.2 255.1 162.4 255.1 162.9C255.2 163.5 255.4 164.5 255.5 165C255.6 165.6 255.8 166.2 255.9 166.5C255.9 166.8 256.8 167 257.8 166.9C258.8 166.9 259 166.6 258.3 166.3ZM276 164.6C276 163.8 275.6 162.9 275.2 162.6C273.9 161.8 271.7 163.7 272.4 164.9C273.4 166.5 276 166.3 276 164.6ZM310.8 163.7C311.1 162.1 310.9 162 309.1 163.2C306.6 164.8 306.4 166.3 308.7 165.8C309.7 165.6 310.6 164.7 310.8 163.7ZM123.3 162C123.6 160.9 123.3 160 122.7 160C122 160 120.5 159.7 119.2 159.4C116.3 158.6 116.6 160.9 119.5 162.6C122.3 164.3 122.7 164.2 123.3 162ZM190.3 161.9C190.6 160.8 190.6 159.1 190.3 158.3C189.8 157.1 189.4 157.3 188.4 159.1C187.7 160.4 187.1 162.1 187 162.8C187 164.9 189.7 164.1 190.3 161.9ZM166.3 160.9C165.8 158.9 166 158.8 168.6 159.3C171.2 159.8 171.3 159.7 169.5 158.4C167.1 156.6 148 150.6 147.3 151.4C146.9 151.7 147.4 152 148.3 152C149.3 152 150 152.5 150 153C150 153.6 151 154 152.3 154.1C153.5 154.1 156.1 154.7 158 155.4C161.1 156.5 161.3 156.8 159.5 157.7C157.8 158.7 158 159 161.6 160.8C166.6 163.5 166.9 163.5 166.3 160.9ZM203 159.8C203 158.8 202.7 158.8 199.6 160C198.2 160.5 197 161.4 197 161.9C197 162.4 198.3 162.3 200 161.7C201.7 161.1 203 160.2 203 159.8ZM209 161.2C209 159.7 204 155.9 202.9 156.6C202.3 156.9 203.1 158.2 204.7 159.6C207.6 162.1 209 162.6 209 161.2ZM263.3 158.4C263 157.6 263.3 157 263.9 157C264.5 157 264.9 156.4 264.8 155.8C264.6 155.1 265.4 154.5 266.5 154.4C270.5 154.2 271 154 271 152.6C271 150.7 270.4 150.4 264.5 149.5L259.5 148.8L261.5 151C262.8 152.4 263.1 153.3 262.3 153.8C261.1 154.6 259.9 160.5 260.8 161.4C261.7 162.4 263.9 159.9 263.3 158.4ZM132 159.3C132 159 131.3 159 130.5 159.4C129.6 159.7 129 159.4 129 158.5C129 156.8 127.4 156.5 126.5 157.9C125.8 159.1 129 160.9 130.7 160.3C131.4 160 132 159.6 132 159.3ZM216.6 156.5C215.7 155.6 215 155.2 215 155.6C215 155.9 214.3 155.7 213.5 155C212.6 154.3 211.7 154 211.3 154.4C211 154.7 211.2 155 211.8 155C212.5 155 213 155.6 213 156.4C213 157.2 214 158 215.3 158.2C218.3 158.7 218.5 158.4 216.6 156.5ZM103.5 153.1C103.8 152 105.3 149.8 106.8 148.2C111.8 142.8 113.5 140.7 112.3 141.4C111.5 141.8 111 141.5 111 140.6C111 139.7 110.6 139 110.1 139C109.6 139 109.4 139.9 109.7 140.9C110.2 143 109.8 143.1 96.7001 143.4C88.8001 143.5 87.7001 145.4 93.5001 148.6C95.4001 149.6 97.0001 151 97.0001 151.8C97.0001 152.5 98.0001 153.5 99.3001 154C102.5 155.3 102.8 155.2 103.5 153.1ZM221.8 151.5C221.8 150.1 221.2 149 220.5 149C219.7 149 219.5 149.9 219.8 151.5C220 152.9 220.6 154 221 154C221.4 154 221.8 152.9 221.8 151.5ZM145 150.3C144.2 150.1 142.5 149.4 141.3 148.8C140 148.2 138.7 148 138.4 148.3C137.6 149.1 141.8 150.9 144.5 150.9C145.8 150.8 146 150.7 145 150.3ZM197.5 149.4C196.8 148.7 195.3 148.4 194.1 148.7C190.8 149.5 191.6 150.8 195.4 150.7C198.1 150.6 198.5 150.4 197.5 149.4ZM207.8 148.3C207.3 146 205.5 146.3 205.2 148.7C204.9 150.5 205.2 150.8 206.5 150.4C207.4 150 208 149.1 207.8 148.3ZM151.7 145.9C152.4 144.1 152.7 142.3 152.4 141.9C152.1 141.4 152.4 141 153 141C153.6 141 155.9 139.2 158.2 137.1L162.2 133.2L158.4 131.1C156.2 130 155.1 129.1 155.9 129C156.8 129 157.1 128.1 156.8 126C156.5 124.4 156.6 123.2 156.8 123.5C157.5 124.2 161 120.9 161 119.6C161 119 160.5 119.2 160 120C159.5 120.8 158.6 121.6 158 121.6C157.5 121.7 156.5 121.8 156 121.9C155.4 121.9 155.2 123.2 155.4 124.8C155.8 127.1 155.7 127.2 154.7 125.9C153 123.7 151 124.7 151 127.8C151 129.7 150.7 130.1 150.1 129.2C149.5 128.1 148.4 128.6 145.5 131.1C141.3 134.8 139 139.4 139 144C139 146.6 139.4 147 141.8 147.1C143.3 147.1 145.4 147.5 146.5 148C149.8 149.4 150.5 149.1 151.7 145.9ZM133.9 145.4C135.2 144.3 133.1 144.4 130.5 145.6L127.5 146.9L130.5 146.3C132.2 146 133.7 145.6 133.9 145.4ZM199 142.5C199 141.7 198.6 141 198 141C197.5 141 197 141.7 197 142.5C197 143.3 197.5 144 198 144C198.6 144 199 143.3 199 142.5ZM215.3 136C216.1 136 216.1 135.7 215.3 134.9C214 133.6 211 134.4 211 136.1C211 136.7 211.7 136.9 212.6 136.6C213.5 136.3 214.7 136 215.3 136ZM203.4 134.4C205.5 133.6 205.5 132 203.4 132C202.6 132 202.1 132.4 202.5 132.9C202.8 133.4 202.2 134.1 201.3 134.3C200.3 134.6 200 134.8 200.7 134.9C201.3 134.9 202.5 134.7 203.4 134.4ZM113.7 125.8C113.5 124.5 113.3 125.5 113.3 128C113.3 130.5 113.5 131.5 113.7 130.3C113.9 129 113.9 127 113.7 125.8ZM217.3 126.6C217 125 216.3 124.3 215.4 124.7C213.7 125.3 213.6 126.7 215.3 128.4C217 130.3 217.8 129.5 217.3 126.6ZM209.3 127.4C210.2 126.5 208.9 123.9 207.9 124.6C207.4 124.9 207 125.8 207 126.6C207 128 208.2 128.5 209.3 127.4ZM72.4001 117.9C71.6001 116.6 70.0001 117.8 70.0001 119.7C70.0001 121 70.3001 121 71.5001 120C72.3001 119.3 72.7001 118.4 72.4001 117.9ZM77.4001 116.4C79.2001 114.7 79.4001 113.4 78.1001 112.6C77.3001 112.1 76.0001 114.1 76.1001 115.6C76.1001 116 75.6001 116.7 74.8001 117.1C73.9001 117.7 73.9001 118 74.7001 118C75.3001 118 76.6001 117.3 77.4001 116.4ZM218 117.6C218 117.4 216.9 117 215.5 116.8C214.1 116.5 213 116.7 213 117.1C213 117.6 214.1 118 215.5 118C216.9 118 218 117.8 218 117.6ZM67.1001 110.2C66.6001 109.3 65.8001 107.6 65.4001 106.5C64.7001 104.6 64.7001 104.6 64.3001 106.3C64.0001 107.3 64.5001 108.9 65.4001 109.9C66.3001 110.9 66.7001 112 66.3001 112.5C65.8001 112.9 66.1001 113 66.7001 112.6C67.5001 112.1 67.7001 111.3 67.1001 110.2ZM216 111C216 110.5 215.3 110 214.5 110C213.7 110 213 110.5 213 111C213 111.6 213.7 112 214.5 112C215.3 112 216 111.6 216 111ZM72.3001 107.3C74.2001 108 75.2001 105.9 73.9001 103.9C73.2001 102.7 73.0001 102.7 73.0001 104C73.0001 104.9 72.7001 105.1 72.2001 104.5C71.8001 104 70.8001 103 70.0001 102.3C68.7001 101.3 68.4001 101.6 68.2001 104.1C67.9001 107.7 68.9001 109.8 70.0001 108C70.4001 107.3 71.5001 107 72.3001 107.3ZM81.4001 106.5C81.0001 105.4 81.7001 104.7 83.7001 103.9C86.1001 103.1 86.7001 102.3 86.8001 100C86.9001 96.1 84.8001 94.6 80.5001 95.4C76.9001 96.1 75.0001 97.8 76.8001 98.9C77.4001 99.2 78.1001 100.8 78.4001 102.3C78.7001 104.3 78.5001 105 77.2001 105.1C76.2001 105.1 76.7001 105.7 78.5001 106.5C80.2001 107.3 81.6001 107.9 81.7001 108C81.8001 108 81.7001 107.3 81.4001 106.5ZM136.6 99.2C137.2 98.8 138.4 97.1 139.2 95.3L140.8 92.1L137.3 91.4C135 91 133.4 91.2 132.7 92C131.8 93 131.8 93.1 133 92.5C134.1 91.9 134.1 92.2 132.8 93.5C131.3 95.1 131.3 95.5 132.7 97.6C134.3 100.2 134.9 100.4 136.6 99.2ZM178 97.5C178 96.7 177.6 96 177 96C176.5 96 176 96.7 176 97.5C176 98.3 176.5 99 177 99C177.6 99 178 98.3 178 97.5ZM67.4001 95.4C68.1001 93.6 68.2001 90 67.6001 90C65.4001 90 64.4001 91.4 64.8001 94C65.3001 97.3 66.4001 97.9 67.4001 95.4ZM88.9001 92.4C88.3001 91.6 87.1001 91 86.4001 91C84.4001 91 84.7001 93.8 86.8001 94.3C89.3001 94.8 90.3001 94 88.9001 92.4ZM129 90.4C129 89.3 128.5 89 127.4 89.4C126.5 89.7 125.3 90 124.7 90C123.1 90 126.1 92 127.8 92C128.4 92 129 91.3 129 90.4ZM99.0001 81C100.2 80.2 100.1 80 98.3001 80C97.0001 80 96.0001 80.5 96.0001 81C96.0001 82.3 97.1001 82.3 99.0001 81Z" fill="#32332F"/>
<path d="M210.1 359.4C211.4 357.8 214 357.5 214 358.9C214 359.4 212.9 360 211.5 360.2C209.5 360.6 209.2 360.5 210.1 359.4Z" fill="#32332F"/>
<path d="M213 326.9C213 325.6 215.9 320 216.6 320C216.8 320 216.4 321.3 215.5 322.9C214.4 325.1 214.3 325.9 215.2 326.2C215.9 326.5 215.7 326.9 214.7 327.3C213.8 327.6 213 327.5 213 326.9Z" fill="#32332F"/>
<path d="M217.3 319.5C215.2 317.1 215.3 316 217.5 316C218.9 316 221.3 320.7 220.2 321.4C219.8 321.6 218.5 320.8 217.3 319.5Z" fill="#32332F"/>
<path d="M305 294.1C305 292 306.3 290 307.6 290C308.4 290 309 289 309.1 287.8C309.1 285.6 309.2 285.6 309.9 287.5C310.9 289.9 310.3 292.1 308.2 293.8C306.3 295.2 305 295.4 305 294.1Z" fill="#32332F"/>
<path d="M317.4 294C316.4 293.6 315 293.5 314.4 293.7C313.8 293.9 313 292.7 312.6 290.9C311.7 286.3 311.8 286 313.8 286C315.8 286 316.4 288.7 314.7 290.8C314 291.6 314.2 292 315.3 292C317.7 292 317.9 291 316.8 284.5C316.2 280.4 316.2 278.4 316.9 278.2C317.5 278 318 277.2 318 276.4C318 275.6 318.5 275 319 275C319.6 275 320 275.7 320 276.5C320 277.3 320.7 278 321.5 278C322.3 278 323 277.6 323 277C323 276.5 322.6 276 322 276C321.5 276 321 275.5 321 274.9C321 274.2 320.2 273.1 319.3 272.4C316.3 270.3 318.7 269.6 322.1 271.6C326.2 274 328.8 278.5 328.9 283.3C329 286.4 328.7 287 327 287C325.5 287 325 287.7 325 289.4C325 292.3 320.4 295 317.4 294ZM324.8 282.6C324.5 280.5 322.8 280.1 319.8 281.4C317.2 282.6 318.7 284.7 322.1 284.7C324.6 284.7 325 284.3 324.8 282.6Z" fill="#32332F"/>
<path d="M300.8 287.3C300.6 285.3 300 284.6 298.8 284.8C297.5 285 297 284.4 297 282.5C297 280.9 297.6 280 298.5 280C299.3 280 300 280.7 300 281.6C300 282.8 300.5 283 301.8 282.5C302.7 282 304.9 281.5 306.5 281.3C309.1 280.9 309.6 281.2 309.7 283C309.9 284.8 309.5 285 307.1 284.5C305 284.1 304.3 284.3 304.3 285.4C304.3 286.2 304.7 286.7 305.1 286.4C306.4 285.7 306.9 287.5 305.9 289C305.1 290.3 304.9 290.3 304 289C303.4 288 303 287.9 303 288.8C303 291.2 301.1 289.9 300.8 287.3Z" fill="#32332F"/>
<path d="M312 279.9C310.9 279.1 310.8 278.7 311.7 278.3C312.6 278 312.7 277.3 312 276C311.3 274.6 311.4 273.8 312.3 272.9C313 272.2 313.4 270.3 313.2 268.5C312.9 265.9 313.2 265.2 314.9 264.7C316.7 264.3 317 264.6 317 267.5C317 269.4 316.4 271.5 315.6 272.3C314.8 273.1 314.4 274.7 314.7 275.8C315.4 278.8 313.9 281.2 312 279.9Z" fill="#32332F"/>
<path d="M306 278.5C306 277.7 306.9 277 308 277C309.3 277 309.8 277.5 309.4 278.5C309 279.3 308.2 280 307.4 280C306.6 280 306 279.3 306 278.5Z" fill="#32332F"/>
<path d="M297.4 273.6C297.3 272.2 297.9 270.9 298.7 270.6C299.8 270.1 300 270.4 299.6 271.6C299.3 272.4 299 273.8 299 274.6C299 277 297.5 276.1 297.4 273.6Z" fill="#32332F"/>
<path d="M326.4 263.5C327.5 262.7 328.6 262.3 328.9 262.6C329.5 263.2 327 265 325.5 265C325 264.9 325.4 264.3 326.4 263.5Z" fill="#32332F"/>
<path d="M330.7 259.3C329.5 258.1 330 257 331.8 257C332.8 257 333.1 256.7 332.5 256.2C331.3 255.4 331.2 253.5 332.1 252.5C332.5 252.2 333.3 253.4 333.9 255.1C334.8 257.6 334.7 258.5 333.8 259.2C332.2 260.2 331.5 260.2 330.7 259.3Z" fill="#32332F"/>
<path d="M337.9 252.2C337 251.2 336.1 249.5 335.8 248.4C335.4 246.7 335.9 246.5 340.2 246.5C343.9 246.5 344.6 246.7 343.1 247.4C341 248.3 341 248.3 343.2 250.1C344.9 251.7 345 252 343.7 252C342.7 252 342 252.5 342 253C342 254.6 339.6 254.1 337.9 252.2Z" fill="#32332F"/>
<path d="M333.1 242.3C336 237.3 336.4 237 335.5 240C335.1 241.4 334.4 242.6 333.9 242.8C333.5 243 333.4 243.8 333.7 244.6C334 245.5 333.6 246 332.5 246C331 246 331.1 245.5 333.1 242.3Z" fill="#32332F"/>
<path d="M223 219.8C223 217.3 223.3 216.9 224 218C225.3 220 225.3 223 224 223C223.5 223 223 221.5 223 219.8Z" fill="#32332F"/>
<path d="M252 217C250.8 216.3 250.8 215.8 251.7 214.9C253.2 213.4 254.3 214.2 253.8 216.4C253.6 217.5 253.1 217.7 252 217Z" fill="#32332F"/>
<path d="M117.1 185.3C117.1 182.4 117.3 182 117.9 183.5C118.6 185.3 118.3 189 117.4 189C117.2 189 117 187.3 117.1 185.3Z" fill="#32332F"/>
<path d="M145.5 166C144.7 164.7 145.4 163.6 146.9 164.1C147.5 164.4 147.6 165.1 147.1 165.9C146.5 166.9 146.1 166.9 145.5 166Z" fill="#32332F"/>
<path d="M390.5 369C388.7 367.1 388.8 367 390.8 367C392.3 367 392.8 367.6 392.7 369C392.6 370.1 392.5 371 392.4 371C392.4 371 391.5 370.1 390.5 369Z" fill="#32332F"/>
<path d="M397.4 341.6C396.6 339.4 397.7 338.3 399.2 339.8C400.1 340.7 400.1 341.3 399.2 342.2C398.3 343.1 397.9 342.9 397.4 341.6Z" fill="#32332F"/>
<path d="M239 170.9C238 169.1 238.1 168.9 239.7 169.2C240.7 169.4 241.6 170.3 241.8 171.3C242.3 173.7 240.3 173.4 239 170.9Z" fill="#32332F"/>
<path d="M289 167C289 166.5 289.9 166 291.1 166C292.2 166 292.8 166.5 292.5 167C292.2 167.6 291.2 168 290.4 168C289.6 168 289 167.6 289 167Z" fill="#32332F"/>
<path d="M232.4 152.8C232 151.5 231.3 150.2 230.7 149.9C230.2 149.5 231.1 148.9 232.7 148.6C234.6 148.2 236.2 146.9 237.1 145.2C237.8 143.7 238.6 142.2 238.8 141.9C238.9 141.5 238.2 141 237 140.7C234.7 140.1 234.3 138 236.5 138C237.3 138 238 138.4 238 138.9C238 139.4 238.9 139.6 240 139.3C242 138.8 242.8 140.4 241 141.5C240.5 141.8 240.3 142.7 240.6 143.4C240.9 144.3 240.3 145.1 239.1 145.5C236.4 146.3 237.4 148 240.6 148C242.3 148 243 148.6 243 149.9C243 151.6 242.6 151.8 239.8 150.9C238 150.4 236.4 150 236.3 150C236.1 150 236 151.1 236 152.5C236 155.7 233.4 155.8 232.4 152.8Z" fill="#32332F"/>
<path d="M304 151C304 148.8 304.7 148.5 306.9 149.9C308.5 150.9 307.5 153 305.4 153C304.6 153 304 152.1 304 151Z" fill="#32332F"/>
<path d="M295.3 147.3C294.6 147.1 294 146 294 144.9C294 142.8 295.3 143.1 299.5 146.4C301.5 147.9 301.4 147.9 299 147.9C297.6 147.9 295.9 147.6 295.3 147.3Z" fill="#32332F"/>
<path d="M266 144.5C265 143.2 265.1 143 266.9 143C268.1 143 269 143.6 269 144.5C269 145.3 268.6 146 268.1 146C267.6 146 266.7 145.3 266 144.5Z" fill="#32332F"/>
<path d="M250.4 142.6C250 141.4 249.1 141.2 247.1 141.7C244.8 142.3 244.6 142.2 245.9 140.7C246.8 139.6 248.6 139.1 251.1 139.2C253.3 139.3 255 139.4 255 139.5C255 139.6 254.1 140.7 253 142C251.3 144 251 144 250.4 142.6Z" fill="#32332F"/>
<path d="M324.3 140.6C323.7 139.9 322 139.4 320.5 139.5C318.9 139.7 318 139.4 318.3 138.7C318.7 137.5 324.7 137.3 327.4 138.3C328.3 138.7 328.7 139.6 328.4 140.5C327.7 142.3 325.9 142.4 324.3 140.6Z" fill="#32332F"/>
<path d="M243 136.5C241.1 135.5 240.3 135.5 239.8 136.3C239.3 137.1 239 136.9 239 135.8C239 133.7 243.9 133.3 245.8 135.2C246.6 136 247.3 136 248.4 135.1C249.4 134.2 250 134.2 250.5 135C251.4 136.4 251.2 136.6 248 137.3C246.6 137.6 244.4 137.3 243 136.5Z" fill="#32332F"/>
<path d="M283.5 136C283.1 135.4 282.4 135.2 281.9 135.5C281.4 135.9 281 135.6 281 135.1C281 133.6 282.1 133.8 284.4 135.5C285.5 136.3 285.9 137 285.3 137C284.6 137 283.8 136.5 283.5 136Z" fill="#32332F"/>
<path d="M253.5 135C253.2 134.5 253.8 134 254.9 134C256.1 134 257 134.5 257 135C257 135.6 256.4 136 255.6 136C254.8 136 253.8 135.6 253.5 135Z" fill="#32332F"/>
<path d="M261.3 131C261.3 128.5 261.5 127.5 261.7 128.8C261.9 130 261.9 132 261.7 133.3C261.5 134.5 261.3 133.5 261.3 131Z" fill="#32332F"/>
<path d="M245.6 132.8C245.9 132.1 247.2 130.7 248.5 129.7C250.9 128 251 128 251 129.8C251 130.8 250.5 132.1 249.8 132.8C248.2 134.4 244.9 134.4 245.6 132.8Z" fill="#32332F"/>
<path d="M264.9 125.4C264.4 123.9 264.2 122.4 264.6 122.1C265.4 121.3 269.1 126 268.4 127.1C267.4 128.8 266 128 264.9 125.4Z" fill="#32332F"/>
<path d="M268.5 120C267.1 118.4 267 118 268.1 118C268.9 118 270.3 118.9 271.3 120C272.5 121.5 272.6 122 271.6 122C270.9 122 269.5 121.1 268.5 120Z" fill="#32332F"/>
<path d="M198.2 112.9C198.4 112.3 199 111.9 199.5 111.9C200 111.9 200.6 112.3 200.8 112.9C201 113.5 200.4 114 199.5 114C198.6 114 198 113.5 198.2 112.9Z" fill="#32332F"/>
<path d="M206.3 103.3C204.3 102.6 204.8 100.6 207.3 99.4C209.4 98.4 209.6 98.6 209.2 100.7C208.7 103.3 208 103.9 206.3 103.3Z" fill="#32332F"/>
<path d="M194.4 100.5C192.5 99.1 192.6 99.1 194.8 99C196.1 99 197 99.6 197 100.5C197 102.4 196.9 102.4 194.4 100.5Z" fill="#32332F"/>
<path d="M101.6 96.3C101.3 96 101.3 95.3 101.6 94.9C102.3 93.7 105 93.8 105 94.9C105 96 102.4 97.1 101.6 96.3Z" fill="#32332F"/>
<path d="M31.1 86C29.3 83.5 27.2 80.3 26.4 78.8C25.6 77.2 24.6 76 24.2 76C23 76 20 70.4 20.7 69.6C21 69.3 20.7 69 19.9 69C19.1 68.9 16.8 66.5 14.7 63.5C10.8 57.8 10.9 57.4 16.3 57.8C17.3 57.9 18.8 57.4 19.6 56.6C20.8 55.3 20.6 55.1 18.3 54.8C14.7 54.4 14 51.3 17 49C19 47.5 19.1 47.1 17.9 44.9C16 41.7 14.8 40.9 13.3 42.1C12.6 42.7 11.6 42.9 11 42.5C10.5 42.2 9.99998 42.7 9.99998 43.7C9.99998 44.8 8.89998 43.9 7.09998 41.1C5.39998 38.6 4.29998 36.3 4.59998 35.8C5.59998 34.2 4.09998 35 2.09998 37.1C0.0999842 39.3 -1.5789e-05 39.2 0.999984 35C0.999984 34.7 1.89998 33.5 2.89998 32.3L4.69998 30.1L17.8 34.5C30.2 38.7 44 44.8 41.2 45C40.5 45 39 44.5 37.9 44C36.5 43.2 36 43.3 36 44.1C36 44.8 35.7 45.1 35.4 44.7C35 44.4 34.1 44.8 33.2 45.7C31.8 47.1 31.8 47.3 33.6 48.3C34.6 48.9 36 49.5 36.5 49.5C39.4 49.9 44 52.6 44 54C44 54.8 42.8 56.3 41.3 57.2C39.7 58.2 39.1 59 39.8 59C40.5 59 40.8 59.5 40.5 60C40.2 60.6 40.8 61 41.9 61C45.2 61 44.4 63.8 40.9 64.5C38.9 65 38 65.7 38.4 66.6C38.7 67.3 37.7 68.8 36.3 70C34.4 71.5 34.2 72 35.4 72C36.3 72 37 71.6 37 71C37 70.5 37.7 70 38.5 70C40.6 70 40.4 71.3 37.9 73C36.7 73.8 34.8 75.2 33.7 76.1L31.7 77.7L33.9 81.6C35.6 84.6 35.9 86.1 35.2 88C34.3 90.4 34.3 90.4 31.1 86ZM25.8 66.8C26.3 64.7 27.4 63.4 28.6 63.2C31.3 62.7 32.6 61.2 31.4 60C30.7 59.3 29.3 59.9 27.2 62C25.4 63.6 23.3 65 22.5 65C21.3 65 21.2 65.4 22.2 67.5C23.7 70.9 24.8 70.6 25.8 66.8ZM38 62.9C38 61.8 34.2 63.1 33 64.5C32 65.6 32.4 65.7 34.9 64.7C36.6 64.1 38 63.3 38 62.9ZM26 58.1C27.8 54.6 27.1 53.8 24.2 56.2C22.3 57.7 21.7 58.8 22.4 59.2C24.1 60.4 24.9 60.1 26 58.1ZM35.6 53.8C33.6 52.7 31.2 53.9 33.1 55C33.7 55.5 35 55.6 35.8 55.3C37 54.8 37 54.6 35.6 53.8ZM24 45C24 44.5 23.4 44 22.6 44C21.8 44 20.8 44.5 20.5 45C20.2 45.6 20.8 46 21.9 46C23.1 46 24 45.6 24 45ZM10.1 33.7C8.79998 32.4 7.49998 33.4 8.49998 34.9C8.79998 35.5 9.59998 35.7 10.2 35.4C10.8 35 10.8 34.4 10.1 33.7Z" fill="#32332F"/>
<path d="M46.0001 84.5C46.7001 83.7 47.6001 83 48.0001 83C48.3001 83 48.7001 83.7 48.7001 84.5C48.7001 85.3 47.8001 86 46.7001 86C45.1001 86 45.0001 85.7 46.0001 84.5Z" fill="#32332F"/>
<path d="M54.1999 78.8C54.6999 75.6 56.9999 75.3 56.9999 78.4C56.9999 80.1 56.4999 81 55.3999 81C54.3999 81 53.9999 80.3 54.1999 78.8Z" fill="#32332F"/>
<path d="M169.8 76.2C167.7 75.8 167.6 75.3 169.3 73.5C170.2 72.6 171.2 72.5 172.3 73.2C175.4 74.9 173.6 77.1 169.8 76.2Z" fill="#32332F"/>
<path d="M132.4 60.7C131.7 59.9 131.8 58.8 132.9 56.8C134.2 54.6 135.3 54 138 53.9L141.5 53.8L138.8 52.8C135.6 51.7 135.2 50.4 137.8 49.6C142.9 48.2 146 47.9 146 48.9C146 49.9 144.6 50.4 142.8 50.1C141.1 49.9 142.1 52.2 143.9 52.7C147.3 53.6 147.3 55.8 144.2 60.9C144.1 61.2 143.3 60.5 142.4 59.4C141.6 58.4 141.1 58.1 141.5 58.8C142.2 60.1 141.3 60.5 136.5 61.3C134.9 61.6 133 61.3 132.4 60.7Z" fill="#32332F"/>
<path d="M5.00003 50.6C2.20003 46.3 1.00003 43.4 1.30003 41.8C1.70003 39.8 1.70003 39.8 1.90003 42.3C1.90003 43.8 2.50003 45 3.00003 45C3.60003 45 4.50003 46 5.00003 47.3C5.60003 48.5 7.10003 51.2 8.50003 53.3C9.90003 55.3 10.6 57 10.1 57C9.60003 57 7.30003 54.1 5.00003 50.6Z" fill="#32332F"/>
<path d="M128 48.5C127.3 47.6 127 46.7 127.4 46.3C127.7 46 128 46.2 128 46.9C128 47.6 128.5 47.8 129 47.5C129.6 47.2 130 47.6 130 48.4C130 50.4 129.6 50.4 128 48.5Z" fill="#32332F"/>
<path d="M134.7 46.3C134.3 46 134 44.7 134 43.6C134 41.8 133.8 41.7 132.9 43C132.2 44.1 132 42.7 132.2 37.8C132.4 34.1 132.9 30.8 133.3 30.4C133.7 30 135.1 30.7 136.5 32C139.3 34.6 138.4 37.4 135.5 35C133.2 33.1 132.6 34.4 134.4 37.8C135.2 39.4 135.6 41.1 135.2 41.4C134.8 41.8 135.3 42.6 136.3 43.1C138.3 44.3 138.6 47 136.7 47C135.9 47 135 46.7 134.7 46.3Z" fill="#32332F"/>
<path d="M143 45C144.9 43.7 146 43.7 146 45C146 45.6 145 46 143.8 46C141.9 46 141.8 45.8 143 45Z" fill="#32332F"/>
<path d="M126.5 39C126.2 38.6 126.6 37.6 127.3 36.8C128.1 36.1 128.9 34.8 129.3 34C129.6 33.2 129.9 33.9 129.9 35.6C130 38.7 127.7 41 126.5 39Z" fill="#32332F"/>
<path d="M137.5 23C137.2 22.5 137.8 22 138.9 22C140.1 22 141 22.5 141 23C141 23.6 140.4 24 139.6 24C138.8 24 137.8 23.6 137.5 23Z" fill="#32332F"/>
<path d="M207 380.6C207 378.9 207.7 377.9 209.3 377.4C212.8 376.2 214 376.1 214 377.1C214 378.4 216.1 378.2 219.1 376.6C220.8 375.7 222.3 375.6 223.4 376.2C224.6 376.9 225.2 376.7 225.6 375.6C226 374.6 227.4 374 229.4 374C231.9 374 233.3 374.8 235.4 377.5C237 379.4 238.9 381 239.7 381C240.5 381 240.9 381.4 240.6 381.8C240.3 382.3 232.7 382.7 223.6 382.8L207 383V380.6Z" fill="black"/>
<path d="M198.5 380.2C194.4 377.6 192.7 375.3 193.4 373.3C194 371.9 194.4 372.2 196.1 374.9C197.7 377.6 198.5 378.1 200.5 377.6C202.7 377 203 377.3 203 379.5C203 382.5 202.4 382.6 198.5 380.2Z" fill="black"/>
<path d="M154.8 373.6C154.2 372.1 154.1 370.4 154.6 369.3C155.2 367.9 155.5 368.2 155.8 371C156 372.9 156.7 374.8 157.3 375.2C158.2 375.8 158.2 376 157.2 376C156.5 376 155.5 374.9 154.8 373.6Z" fill="black"/>
<path d="M257.8 364.2C257.5 363.6 257.6 355.9 257.9 351.7C257.9 350.7 258.4 350.1 258.9 350.4C259.4 350.7 260 350 260.3 348.9C260.6 347.7 261.3 347.1 261.9 347.5C262.6 347.9 263 347.2 263 345.8C263 344.5 263.7 342.6 264.5 341.6C265.9 339.7 266 339.8 266.6 342.9C267.1 345.2 267.6 345.8 268.3 345.1C269.9 343.5 271 343.8 271 345.6C271 346.4 270.6 346.9 270.1 346.5C269.6 346.2 268.8 346.5 268.4 347.1C268 347.9 268.1 348 268.8 347.6C269.6 347.1 270 347.9 270 349.9C270 352.4 269.6 353 267.9 353C266.5 353 266.1 353.4 266.7 354.3C267.1 354.9 267.5 357.2 267.5 359.3C267.5 362.4 267.2 363 265.8 362.7C264.9 362.4 263.9 362.7 263.7 363.4C263.2 364.7 258.3 365.4 257.8 364.2Z" fill="black"/>
<path d="M273.4 361.6C273.1 360.8 272.2 360.4 271.4 360.7C270.6 361 270 360.6 270 359.6C270 358.7 270.5 358 271.1 358C271.9 358 272.1 356.3 271.7 352.6C271.3 348.4 271.5 347 272.6 346.6C273.4 346.3 274 345.6 274 345C274 344.4 273.6 344.1 273.1 344.4C272.6 344.7 272 344.4 271.7 343.6C270.9 341.7 272 337.9 273.1 338.6C273.6 338.9 274 338.6 274 338.1C274 337.5 274.5 337 275 337C275.6 337 276 337.9 276 339C276 340.1 276.4 341 276.9 341C277.4 341 278 341.9 278.3 343C278.6 344.3 278.3 345 277.4 345C275.5 345 275.6 348.6 277.5 349.3C278.3 349.7 279.1 349.6 279.4 349.2C280.3 347.8 280.4 341.4 279.6 340.1C279 339.2 279.1 338.9 279.7 339.3C280.3 339.7 281.5 339.1 282.5 338C284.6 335.7 286.6 336.3 287.6 339.8L288.3 342.5L288.9 339.6C289.7 335.6 291.2 335.7 292.2 339.9C293.2 343.4 292.5 345.4 291.1 343.1C290.5 342.2 290.1 342.5 289.5 344.2C288.6 347.1 288.9 350.1 290.2 351.7C291.5 353.4 290.5 356 288.5 356C287.7 356 287 356.5 287 357.1C287 357.6 286.6 357.9 286.2 357.6C285 356.9 284.9 346.8 286.1 345.4C286.7 344.6 286.6 344 285.5 343.6C284.2 343.1 284 344.4 284 352.3C284 357.8 283.6 361 283.1 360.1C281.9 358.3 275.6 359.6 276.4 361.6C276.7 362.4 276.3 363 275.4 363C274.6 363 273.7 362.4 273.4 361.6ZM275.6 352.8C276.1 352.1 275.9 352 275 352.5C274 353.1 273.9 352.7 274.4 350.6C274.8 349.1 274.6 348 274 348C273.5 348 273 349.4 273 351C273 354 274.3 355 275.6 352.8ZM284.2 342C284.8 342 284.8 341.4 284 340.5C283.3 339.6 282.5 339.2 282.2 339.5C281.3 340.4 281 343.4 281.7 345C282.2 346.1 282.4 345.9 282.7 344.3C283 343 283.6 342 284.2 342Z" fill="black"/>
<path d="M291 350.6C291 349.8 291.7 349 292.5 348.6C293.4 348.3 294 348.6 294 349.4C294 350.2 293.3 351 292.5 351.4C291.6 351.7 291 351.4 291 350.6Z" fill="black"/>
<path d="M267.2 339.9C265.6 337.4 265.7 337 268 337C269.3 337 270 337.7 270 338.9C270 341.7 268.6 342.2 267.2 339.9Z" fill="black"/>
<path d="M170.5 329C171.9 322.5 173.2 304.6 172.8 296C172.3 285.4 171.9 284.6 159.8 268.9C156.7 264.8 153 259 151.7 256C147.8 247.5 140.9 242.1 124.5 234.5C120.1 232.4 115 229.5 113.2 227.9C111.4 226.3 108.3 224.2 106.2 223.1C104.2 222.1 99.7002 218.6 96.3002 215.3C90.8002 210.1 90.1002 208.9 89.0002 203.5C88.3002 200.2 86.7002 194.8 85.4002 191.5C80.4002 178.3 80.6002 179.2 82.7002 181.5C83.8002 182.6 84.9002 184.3 85.3002 185.4C85.9002 187 86.3002 187 87.8002 185.9C89.1002 184.8 89.0002 185.1 87.5002 187C86.4002 188.4 85.9002 189.2 86.4002 188.8C86.9002 188.4 87.9002 188.8 88.5002 189.7C89.6002 191.1 90.0002 191.2 91.4002 190.1C92.7002 189 93.7002 189.1 97.4002 191C102.5 193.4 103.4 194.9 101.1 196.8C100.2 197.6 100.1 197.9 100.8 197.5C101.4 197.2 102 197.3 102 197.9C102 198.6 102.8 198.6 104.5 198C106.1 197.4 107 197.4 107 198C107 198.6 107.7 199 108.5 199C110.4 199 110.5 204 108.8 205.9C107.7 206.9 107.8 207 109.3 206.5C110.2 206.1 111 205.5 111 205.1C111 204 117.4 202 120.9 202C122.7 202 125.6 202.6 127.3 203.4C129.1 204.1 132.3 205.1 134.5 205.6C136.7 206.1 138.5 207 138.5 207.5C138.7 210.3 140.3 212.8 142.5 213.8C143.9 214.4 145 215.6 145 216.4C145 217.4 145.6 217.7 146.5 217.4C147.6 217 148 217.5 148.1 219.1C148.2 220.4 148.3 222.2 148.4 223C148.5 223.8 148.9 225.1 149.4 225.8C149.9 226.6 149.8 227.6 149.2 228.2C148.4 229 148.4 229.9 149.1 231.2C149.7 232.3 149.9 234.9 149.5 237C148.6 242.1 149.6 245 152.1 245C153.2 245 153.8 245.5 153.5 246C153.1 246.6 152.4 246.7 151.7 246.3C151.1 246 151.6 247 152.8 248.8C154.1 250.5 155.6 251.8 156.3 251.6C157 251.5 157.2 251.5 156.8 251.7C155.2 252.6 156.1 253.9 159.5 256C163.5 258.5 164 261 161 264C159.9 265.1 159.5 266.2 160 266.5C160.6 266.9 161.3 266.4 161.6 265.6C162.4 263.6 165 263.5 165 265.5C165 266.4 165.6 267.3 166.4 267.6C167.6 268 173.7 281.2 174.4 285C174.5 285.3 174.9 286.1 175.4 286.9C175.9 287.7 176.5 292.1 176.7 296.8C176.9 303.4 176.7 305.7 175.5 307C174.5 308.1 173.9 311.5 173.6 317.3C173.3 322.6 172.5 326.9 171.5 328.7C169.9 331.4 169.9 331.4 170.5 329ZM128 217.1C128 216 119.1 220.3 118.6 221.7C118.3 222.3 120.3 221.7 123.1 220.4C125.8 219 128 217.5 128 217.1ZM105 208.6C106.4 207 106.8 206 106 206.5C103.1 208.1 101 210.3 101 211.9C101 212.7 101.3 213 101.8 212.5C102.2 211.9 103.6 210.2 105 208.6ZM98.6002 200.3C98.1002 199.8 95.0002 205.3 95.0002 206.7C95.0002 207.1 95.9002 206 97.1002 204.1C98.2002 202.3 98.9002 200.6 98.6002 200.3Z" fill="black"/>
<path d="M223.5 291.1C223.2 289.9 222 288.5 220.9 288C219.3 287.1 219 285.8 219 279.7C219 275.3 219.6 271.5 220.5 270C221.3 268.6 222.7 265.8 223.7 263.8C225.6 259.7 227.6 258.6 226.4 262.3C225.9 263.5 225.7 265.4 225.8 266.5C226.1 271.1 227.3 276.1 228.1 276.6C229.1 277.2 229.1 286.3 228.1 290C227.2 293.1 224.4 293.8 223.5 291.1Z" fill="black"/>
<path d="M189 244.4C189 243.5 189.9 242.6 191.1 242.3C192.7 241.9 192.8 241.5 191.8 240.9C190.9 240.3 191.1 240 192.8 240C194.3 240 195 240.6 195 242C195 243.1 194.3 244 193.5 244C192.7 244 192 244.5 192 245C192 245.6 191.3 246 190.5 246C189.7 246 189 245.3 189 244.4Z" fill="black"/>
<path d="M187 234.1C187 231.8 187.4 231.2 188.6 231.7C190.3 232.3 190.1 236.1 188.3 236.8C187.4 237 187 236.1 187 234.1Z" fill="black"/>
<path d="M175 232.6C175 230.5 176.6 229.8 177.9 231.4C178.8 232.5 178.7 232.9 177.4 233.4C175.2 234.2 175 234.2 175 232.6Z" fill="black"/>
<path d="M191.1 227.8C191.7 226.5 192.4 225.4 192.5 225.2C193 224.6 198 227.4 198 228.4C198 229 197.5 228.9 196.8 228.2C195.1 226.5 193 226.7 193 228.5C193 229.3 192.3 230 191.5 230C190.2 230 190.1 229.6 191.1 227.8Z" fill="black"/>
<path d="M178.6 224.9C177.9 221 177.9 221 182.1 220.7C184 220.6 186.1 219.9 186.9 219.2C187.6 218.5 188.5 218.2 188.9 218.6C189.2 219 188.9 219.5 188.3 219.7C187.4 220 187.3 220.7 188 222C189.7 225.1 183.7 226.3 181.4 223.3C180.2 221.6 180.1 221.7 180.3 223.7C180.3 224.9 180.8 225.6 181.3 225.3C181.8 225 182.1 225.3 181.8 226C181 228.6 179.3 228 178.6 224.9Z" fill="black"/>
<path d="M177.1 216.8C176.5 215.1 176.2 213.5 176.5 213.2C177.4 212.3 181 216.3 181 218.2C181 221.2 178.3 220.3 177.1 216.8Z" fill="black"/>
<path d="M196.5 213.3C196.1 210.6 195.2 206.1 194.4 203.1C193.5 200.2 193.1 197.6 193.4 197.3C194.5 196.2 197 204.6 197.6 211.1C198.4 218.9 197.5 220.5 196.5 213.3Z" fill="black"/>
<path d="M153.4 209.3C152 206.8 152.2 200.8 153.8 200.3C154.5 200 155 200.7 155 201.9C155 203 155.9 204.5 156.9 205.2C158.5 206.1 158.6 206.8 157.7 208.7C156.5 211.4 154.9 211.7 153.4 209.3Z" fill="black"/>
<path d="M147 203.9C147 203.5 147.7 203 148.5 202.6C149.4 202.3 150 202.6 150 203.4C150 204.1 149.3 204.7 148.5 204.7C147.7 204.7 147 204.3 147 203.9Z" fill="black"/>
<path d="M187.4 187.9C184.2 182.6 174.2 172.3 168.6 168.5C165.8 166.6 161.9 163.7 160 162.1L156.5 159L160 160.7C164.4 162.7 174.1 170 179.8 175.4C184.8 180.1 190.4 188.4 189.8 190.1C189.6 190.8 188.5 189.8 187.4 187.9Z" fill="black"/>
<path d="M74 157.1C74 156 73.1 154.5 72 153.7C69.4 151.9 68.4 146.8 69.8 142.2C70.4 140.2 71.2 136.4 71.5 133.8C71.8 131.2 72.8 128.4 73.6 127.6C75.6 125.5 75.3 123.3 73 122.7C69.9 121.9 70.6 120.2 75 118C79.1 115.9 79.3 115.5 79 110.5C78.8 107.9 79 107.8 80.4 108.9C82.2 110.4 82.6 114.5 81 115.5C80.4 115.9 80.3 119.1 80.7 123.8C81.2 130.6 81.7 131.9 84.5 135.1C87.7 138.7 87.8 138.7 88.8 136.6C89.3 135.4 89.6 133.2 89.3 131.7C88.7 128.5 90 128.2 92.5 131C93.5 132.2 95 132.8 95.7 132.6C98.2 131.6 108 137.7 108 140.2C108 141.9 100.8 144.1 96.2 143.8C92.1 143.5 91.5 143.2 91.8 141.5C92.1 139.6 92 139.6 90.4 141.2C88.2 143.3 89.2 147.3 92.2 148.8C94.5 149.8 94.4 149.9 91.7 149.9C87.9 150 85.4 151.5 81.8 155.6C78.4 159.5 74 160.3 74 157.1Z" fill="black"/>
<path d="M102.2 158.1C101.1 157.4 101.4 156.4 103.6 152.9C105.1 150.5 107.4 147.7 108.7 146.7C112.6 143.6 114 139.7 114 131.6C114 127.5 114.5 123.8 115 123.5C115.6 123.2 116 121 116 118.6C116 113.3 118.1 111.2 123 111.5C127.2 111.8 133 113.8 133 115C133 116.5 130.6 117.4 130.2 116.2C129.5 114.1 127 114.9 126 117.6C125.4 119 125 123.2 125 126.9C125 132.4 125.4 134 127 135.5C128 136.4 129.6 137 130.5 136.6C131.5 136.2 132.4 136.8 133 138.4C133.5 139.7 134.4 141 135.1 141.2C137.8 142.1 127.1 146.1 121.8 146.2C113.9 146.2 110.6 148 107.8 153.6C105.3 158.7 104.3 159.5 102.2 158.1Z" fill="black"/>
<path d="M24.6001 129.4C23.6001 126.9 24.7001 126.5 26.0001 128.9C26.6001 130.1 26.7001 131 26.1001 131C25.6001 131 24.9001 130.3 24.6001 129.4Z" fill="black"/>
<path d="M60.6001 114.9C56.2001 111.1 55.1001 108.1 57.6001 106.3C60.7001 104 62.6001 104.8 64.3001 109C66.1001 113.8 67.7001 114.1 69.1001 110C70.5001 106.1 72.5001 106.2 74.6001 110.2C76.2001 113.3 76.2001 113.4 73.6001 115.7C69.7001 119 64.9001 118.8 60.6001 114.9Z" fill="black"/>
<path d="M119.1 108.6C118.4 107.8 118.1 105.9 118.4 104.3C118.6 102.8 118.9 100.9 118.9 100.1C119 99 119.3 99 120.5 100C121.3 100.7 121.8 101.6 121.5 102C120.9 103 123.9 104.2 125.1 103.4C125.6 103.1 126 101.5 126 99.8C126 98 126.7 96.2 127.8 95.4C129.7 93.9 132.1 93.6 131.8 94.8C131.8 95.2 132 96.2 132.4 97.2C132.8 98.1 133 100.3 132.8 102.1C132.3 107.8 122.3 112.5 119.1 108.6Z" fill="black"/>
<path d="M207 380.6C207 378.9 207.7 377.9 209.3 377.4C212.8 376.2 214 376.1 214 377.1C214 378.4 216.1 378.2 219.1 376.6C220.8 375.7 222.3 375.6 223.4 376.2C224.6 376.9 225.2 376.7 225.6 375.6C226 374.6 227.5 374 229.6 374C232.5 374 233.2 374.5 235 378C236.1 380.1 237 382.1 237 382.2C237 382.4 230.3 382.6 222 382.8L207 383.1V380.6Z" fill="#3A3A3A"/>
<path d="M198.5 380.2C194.1 377.5 192.4 375.2 193.8 373.8C194.6 373 195.1 373.2 195.7 374.6C196.6 377 198.6 379.1 199.3 378.4C199.6 378.1 200.3 378.8 201 379.9C202.3 382.4 202.3 382.5 198.5 380.2Z" fill="#3A3A3A"/>
<path d="M154.7 373.7C153.6 370.8 153.8 369.4 155.1 370.7C155.7 371.3 156 372.6 155.8 373.6C155.5 375.4 155.4 375.4 154.7 373.7Z" fill="#3A3A3A"/>
<path d="M258.6 356.5C259 355.7 259.6 355.3 260.1 355.6C261.5 356.4 261.1 358 259.5 358C258.6 358 258.3 357.4 258.6 356.5Z" fill="#3A3A3A"/>
<path d="M285.6 357.1C285.2 356.5 285.3 355.3 285.8 354.4C286.6 353 286.8 353 287.3 354.2C288 356.1 286.5 358.6 285.6 357.1Z" fill="#3A3A3A"/>
<path d="M267 352C267 351.5 267.7 351 268.5 351C269.3 351 270 351.5 270 352C270 352.6 269.3 353 268.5 353C267.7 353 267 352.6 267 352Z" fill="#3A3A3A"/>
<path d="M274.4 350.6C275 348.1 274.9 347.9 272.8 348.5L270.5 349.2L272.9 346.6C274.3 345.2 276.3 344.1 277.4 344.1C279.1 344.2 279.2 344.3 277.8 344.7C276.5 345 276 346.1 276 348.5C276 350.4 275.5 352.2 274.9 352.6C274 353.1 273.9 352.5 274.4 350.6Z" fill="#3A3A3A"/>
<path d="M281.3 352C278.6 350.9 278.2 348.8 280.8 349.2C281.8 349.4 282.5 348.9 282.5 347.8C282.5 346.9 282.9 345.8 283.3 345.4C283.7 345 283.9 346.6 283.7 348.8C283.6 351.1 283.5 353 283.5 352.9C283.5 352.9 282.5 352.5 281.3 352Z" fill="#3A3A3A"/>
<path d="M260 350.7C260 349.8 260.5 349 261.1 349C261.6 349 261.8 348.5 261.4 347.8C261 347.1 261.1 347 261.9 347.4C262.8 348 262.8 348.6 261.8 349.8C261.1 350.8 260.4 351.7 260.3 351.9C260.1 352.1 260 351.6 260 350.7Z" fill="#3A3A3A"/>
<path d="M285.3 347.4C285.3 346.7 285.7 346.3 286.1 346.6C286.5 346.8 287 345.8 287.2 344.3C287.5 341.5 287.5 341.5 288.1 344.7C288.5 347.1 288.2 348 287 348.3C286.1 348.5 285.3 348.1 285.3 347.4Z" fill="#3A3A3A"/>
<path d="M271.6 343.5C271.3 342.7 271.5 341 272 339.8C272.8 337.8 272.9 338 272.9 341.3C273 345.2 272.6 346 271.6 343.5Z" fill="#3A3A3A"/>
<path d="M170.6 328C171 326.1 171.6 321.6 172 318C172.5 313.3 172.8 312.5 173 315C173.2 316.9 173.2 319.2 173.2 320C172.6 325.1 171.9 328.4 170.9 329.9C170.2 331.1 170.1 330.6 170.6 328Z" fill="#3A3A3A"/>
<path d="M172.9 299C172.5 287.9 172.2 286 170.1 283.2C168.8 281.4 167.7 279.3 167.6 278.4C167.5 277.6 166.4 276.3 165.2 275.4C164 274.6 162.5 273 162 271.9C161.1 270.2 161.2 270.1 163.2 270.4C164.5 270.7 166.3 270.9 167.3 270.9C168.3 271 169.5 272.2 170 273.8C170.6 275.3 171.4 277.4 171.9 278.5C172.9 280.7 173.9 283.6 174.1 284.8C174.1 285.2 174.6 286.1 175.2 286.8C176.9 288.8 177.3 305 175.6 306.9C174.9 307.8 174 309.2 173.8 310C173.5 310.8 173.1 305.9 172.9 299Z" fill="#3A3A3A"/>
<path d="M159.7 268.3C159.3 268 160.2 266.8 161.6 265.8C163 264.7 164.4 264.1 164.8 264.5C165.2 264.9 164.9 265.5 164.2 265.7C163.5 266 162.4 266.8 161.6 267.5C160.9 268.3 160 268.6 159.7 268.3Z" fill="#3A3A3A"/>
<path d="M155.2 262.8C154.1 261 152.3 257.5 151.2 255C147.8 247.5 140.4 241.8 124 234.2C119.3 232 114.8 229.5 114 228.6C113.3 227.6 110.6 225.7 108.1 224.3C102.6 221.1 92.2999 212.5 90.8999 209.8C90.2999 208.8 89.2999 205.1 88.4999 201.7C87.7999 198.3 86.1999 193 85.0999 190C82.9999 184.6 82.9999 184.5 84.9999 186.9C86.0999 188.2 86.9999 189.8 86.9999 190.6C86.9999 191.4 87.5999 192 88.3999 192C89.1999 192 89.8999 193.7 90.2999 197C90.5999 199.8 91.5999 202.7 92.4999 203.6C93.2999 204.4 93.9999 205.8 93.9999 206.6C93.9999 207.4 94.4999 208 94.9999 208C95.5999 208 95.9999 207.3 95.9999 206.5C95.9999 205.7 97.5999 203.5 99.4999 201.7C103.1 198.2 107 196.4 107 198.1C107 198.6 107.7 199 108.5 199C110.4 199 110.5 204 108.8 205.9C107.7 206.9 107.8 207 109.3 206.5C110.2 206.1 111 205.5 111 205.1C111 204 117.4 202 120.9 202C122.7 202 125.6 202.6 127.3 203.4C129.1 204.1 132.3 205.1 134.5 205.6C136.7 206.1 138.5 207 138.5 207.5C138.7 210.3 140.3 212.8 142.5 213.8C143.9 214.4 145 215.6 145 216.4C145 217.4 145.6 217.7 146.5 217.4C147.6 217 148 217.5 148.1 219.1C148.2 220.4 148.3 222.2 148.4 223C148.5 223.8 148.9 225.1 149.3 225.8C149.8 226.5 149.7 227.6 149.1 228.3C148.5 229.1 148.5 230.1 149.1 231C149.6 231.8 149.7 234.8 149.4 237.5C148.9 242.1 149.1 243 152.8 248.5C155 251.8 158.2 255.3 159.9 256.3C163.2 258.3 164.2 262 161.3 262C160.4 262 160 262.3 160.3 262.7C161.1 263.4 159.2 266 158 266C157.5 266 156.3 264.5 155.2 262.8ZM159 258.8C159 258.2 158.3 258.3 157.5 259C156.7 259.7 156 260.7 156 261.2C156 261.8 156.7 261.7 157.5 261C158.3 260.3 159 259.3 159 258.8ZM124 227.2C123.3 226.9 122.1 227.5 121.2 228.5C119.6 230 119.7 230.1 122.4 228.9C123.9 228.2 124.7 227.4 124 227.2ZM124.7 219.6C127.3 218.8 132 215.2 132 214C132 213.5 130 214.4 127.6 216C125.2 217.7 122.7 219 122.2 219C120.8 219 118 221.9 118 223.2C118 223.9 119 223.4 120.3 222.3C121.5 221.2 123.5 219.9 124.7 219.6ZM105 208.6C106.4 207 106.8 206 106 206.5C103.1 208.1 101 210.3 101 211.9C101 212.7 101.3 213 101.8 212.5C102.2 211.9 103.6 210.2 105 208.6Z" fill="#3A3A3A"/>
<path d="M195.7 206.6C195.2 204.5 195.1 202.6 195.4 202.3C196.3 201.3 197.2 204.7 196.8 207.7C196.5 210.3 196.4 210.2 195.7 206.6Z" fill="#3A3A3A"/>
<path d="M193.7 200.4C193.3 200 193 199 193 198.1C193 197 193.3 196.9 194.1 197.7C194.7 198.3 195.1 199.3 194.8 200C194.6 200.6 194.1 200.8 193.7 200.4Z" fill="#3A3A3A"/>
<path d="M188.4 189.4C188 188.4 187.5 187.2 187.3 186.8C187.1 186.3 187.3 186 187.9 186C189 186 190.5 189.9 189.6 190.7C189.3 191 188.7 190.4 188.4 189.4Z" fill="#3A3A3A"/>
<path d="M185 184.2C185 182.5 174.2 172.2 167.2 167.1C159.3 161.3 157.8 159.6 163.9 163.2C169.2 166.4 176.5 172.4 182.3 178.5C187 183.4 187.9 185 186 185C185.5 185 185 184.6 185 184.2Z" fill="#3A3A3A"/>
<path d="M74 157.1C74 156 73.1 154.5 72 153.7C69.4 151.9 68.4 146.8 69.8 142.2C70.4 140.2 71.2 136.4 71.5 133.8C71.8 131.2 72.8 128.4 73.6 127.6C75.6 125.5 75.3 123.3 73 122.7C69.9 121.9 70.6 120.2 75 118C79.1 115.9 79.3 115.6 79.1 110.5C78.9 107.6 79 107.6 80.5 109.4C82.2 111.6 82.5 114.6 81 115.5C80.4 115.9 80.3 119.1 80.7 123.8C81.2 130.6 81.7 131.9 84.5 135.1C87.7 138.7 87.8 138.7 88.8 136.6C89.3 135.4 89.6 133.2 89.3 131.7C88.7 128.5 90 128.2 92.5 131C93.5 132.2 95 132.8 95.7 132.6C98.2 131.6 108 137.7 108 140.2C108 141.9 100.8 144.1 96.2 143.8C92.1 143.5 91.5 143.2 91.8 141.5C92.1 139.6 92 139.6 90.4 141.2C88.2 143.3 89.2 147.3 92.2 148.8C94.5 149.8 94.4 149.9 91.7 149.9C87.9 150 85.4 151.5 81.8 155.6C78.4 159.5 74 160.3 74 157.1Z" fill="#3A3A3A"/>
<path d="M104.3 156.3C102.5 155.6 105.3 149.4 108.5 146.8C112.6 143.6 114 139.8 114 131.6C114 127.5 114.5 123.8 115 123.5C115.6 123.2 116 120.9 116 118.6C116 115.9 116.6 113.8 117.5 113C118.3 112.3 119 112.1 119 112.6C119 113 119.5 112.9 120.1 112.3C121 111.4 122 111.5 124.1 112.6C127.7 114.4 127.7 114.8 124.3 114.3C122 114 121.9 114.1 123.5 114.8C125.2 115.6 125.4 116.5 125.1 124.6C124.9 132.5 125.1 133.8 126.9 135.4C128 136.4 129.6 137 130.5 136.6C131.5 136.2 132.4 136.8 133 138.4C133.5 139.7 134.4 141 135.1 141.2C137.9 142.1 127.3 145.9 120.9 146.3C113.1 146.7 110 148.4 107.6 153.4C106.7 155.4 105.8 157 105.7 156.9C105.6 156.9 104.9 156.6 104.3 156.3Z" fill="#3A3A3A"/>
<path d="M60.6001 114.9C56.2001 111.1 55.1001 108.1 57.6001 106.3C60.7001 104 62.6001 104.8 64.3001 109C66.1001 113.7 68.5001 114.2 69.4001 110C70.1001 106.1 72.5001 106.2 74.6001 110.2C76.2001 113.3 76.2001 113.4 73.6001 115.7C69.7001 119 64.9001 118.8 60.6001 114.9Z" fill="#908447"/>
<path d="M119.2 108.8C117.6 107.2 117.7 106 119.5 106C121.4 106 121.4 104.1 119.5 103.4C117.7 102.7 118.5 101 120.7 101C121.6 101 122.1 101.3 121.7 101.6C121.4 101.9 121.7 102.8 122.3 103.5C124 105.4 126 103.4 126 99.7C126 98 126.8 96.1 127.8 95.4C129.7 93.9 132.1 93.6 131.8 94.8C131.8 95.2 132 96.2 132.4 97.2C132.8 98.1 133 100.3 132.8 102.1C132.3 107.7 122.8 112.4 119.2 108.8Z" fill="#908447"/>
</svg>
